<?xml version="1.0" encoding="UTF-8"?>
<svg id="Capa_2" data-name="Capa 2" xmlns="http://www.w3.org/2000/svg" viewBox="0 0 1503.19 512.97">
  <defs>
    <style>
      .cls-1 {
        fill: #4c8e81;
      }

      .cls-1, .cls-2 {
        stroke-width: 0px;
      }

      .cls-2 {
        fill: #356d5e;
      }
    </style>
  </defs>
  <g id="Layer_1" data-name="Layer 1">
    <rect class="cls-2" width="1503.19" height="512.97"/>
    <path class="cls-1" d="M202.88,495.42l-20-.36c1.61-88.96.4-163.84-3.6-223.97-36.97,20.25-85,36.72-121.83,36.72-8.08,0-15.62-.79-22.39-2.51-13.47-3.43-23.19-10.26-28.9-20.32-21.2-37.36,16.45-115.34,49.95-158.77,17.2-22.3,50.66-58.5,81.55-50.3,23.59,6.26,39.57,36.45,50.3,95.01,3.47,18.94,6.36,40.98,8.68,66.07,26.55-17.85,65.18-49.79,84.51-109,15.12-46.32,12.15-89.83,7-118.18l19.68-3.58c5.57,30.62,8.76,77.68-7.66,127.97-10.97,33.6-29.04,63.17-53.7,87.86-17.58,17.61-35.42,29.63-47.96,37.56,4.61,62.49,6.07,141.35,4.37,235.79ZM128.58,94.75c-14.08,0-35.66,16.48-56.63,43.67-37.98,49.24-61.04,114.39-48.39,136.69,2.96,5.21,8.33,8.74,16.43,10.8,33.14,8.43,95.84-12.2,137.64-36.9-2.39-28.7-5.51-53.57-9.34-74.49-11.7-63.84-27.42-77.08-35.76-79.29-1.24-.33-2.56-.49-3.95-.49Z"/>
    <path class="cls-1" d="M1391.27,473.41c-22.73-17.18-53.83-48.02-72.88-97.34-27.55-71.33-13.22-136.95-4.23-172.18-41.24-40.38-90.18-94.86-146.29-162.91l15.43-12.72c52.2,63.31,98,114.64,136.96,153.56,10.4-33.95,26.27-70.12,43.03-97.56,24.81-40.63,49.39-59.4,71.04-54.29,13.12,3.1,24.95,14.91,35.18,35.1,8.38,16.55,15.46,38.31,20.48,62.92,6.4,31.4,8.76,63.71,6.65,90.99-2.54,32.79-11.11,54.76-25.47,65.33-20.64,15.17-51.79,6.64-95.27-26.11-13.63-10.27-28.66-23.06-45.05-38.35-8.07,34.73-16.5,90.22,6.2,149.01,17.36,44.93,45.63,72.98,66.29,88.59l-12.06,15.96ZM1336.46,197.67c18.99,18.15,36.16,33.02,51.46,44.55,33.99,25.61,59.34,34.83,71.38,25.97,9.06-6.67,15.4-25.17,17.38-50.76,1.94-25.11-.36-56.26-6.31-85.46-4.66-22.88-11.14-42.9-18.73-57.88-7.12-14.07-15.12-23.06-21.93-24.67-14-3.31-34.69,21.2-49.37,45.24-17.61,28.84-34.2,67.85-43.89,103Z"/>
  </g>
</svg>