<?xml version="1.0" encoding="UTF-8"?>
<svg id="Capa_2" data-name="Capa 2" xmlns="http://www.w3.org/2000/svg" viewBox="0 0 2541.42 518.37">
  <defs>
    <style>
      .cls-1 {
        fill: #4c8e81;
        opacity: .14;
      }

      .cls-1, .cls-2 {
        stroke-width: 0px;
      }

      .cls-2 {
        fill: #aecaf1;
      }
    </style>
  </defs>
  <g id="Layer_1" data-name="Layer 1">
    <path class="cls-2" d="M111.11,255.94c-22.65,0-58.38-8.83-111.11-26.9l6.49-18.92c33.53,11.49,60.72,19.25,80.82,23.06,28.52,5.4,34.87,1.42,35.65.81.11-.81.28-6.14-10.79-21.24-8.66-11.81-20.8-25.14-32.54-38.03-27.36-30.04-43.88-48.18-34.12-61.44,10.2-13.88,34.12-2.5,77.53,18.16,17.24,8.2,35.07,16.69,50.12,22.24,18.04,6.65,24.48,6.14,26.25,5.72.11-1.78-.45-7.98-9.42-23.91-7.6-13.51-18.68-29.59-29.38-45.14C131.83,48.57,112.83,20.96,126.09,5.98c12-13.56,40.48-8.23,145.23,60.09l-10.93,16.75c-33.69-21.97-61.26-38.44-81.94-48.95-22.34-11.35-32.39-13.52-36.37-13.82.62,2.78,2.63,8.5,8.94,19.33,6.8,11.66,16.15,25.24,26.05,39.62,32.62,47.38,51.89,77.25,37.61,93.65-9.9,11.37-29.18,6.54-44.87,1.07-16.69-5.82-36.36-15.18-55.37-24.23-14.98-7.13-35.87-17.07-47.85-20.82,6.26,8.88,18.77,22.62,27.83,32.56,30.76,33.77,57.32,62.94,45.89,82.75-4.57,7.92-13.9,11.95-29.2,11.95ZM123.04,233.91h0,0Z"/>
    <path class="cls-1" d="M2458.94,518.37l-15.73-12.34c29.13-37.13,50.46-67.65,63.4-90.71,15.85-28.26,16.06-40.33,13.95-42.76-.18-.21-4.68-4.99-30.4,2.52-18.45,5.39-40.65,14.88-62.12,24.05-17.82,7.61-34.64,14.8-48.12,19.1-9.24,2.95-28.48,9.1-36.67-2.84-10.66-15.52,10-37.61,53.96-82.12,18.4-18.63,37.43-37.9,50.65-54.56,18.16-22.9,15.6-28.92,15.56-28.97-.03-.05-3.68-4.98-31.05-.62-20.33,3.23-46.33,10.37-71.49,17.28-64.71,17.77-101.85,26.88-112.73,7.48-10.27-18.3,8.29-50.12,132.25-145.9l12.23,15.83c-41.81,32.31-73.86,59.24-95.25,80.05-27.51,26.76-31.09,37.32-31.52,40.06,2,.77,8.84,2.16,29.15-1.66,17.29-3.25,38.31-9.02,60.57-15.13,25.67-7.05,52.22-14.34,73.64-17.75,19.45-3.09,42.89-4.7,51.55,10.45,12.6,22.03-17.8,55.32-69.35,107.52-13.63,13.8-26.5,26.83-36.15,37.93-7.23,8.32-10.92,13.6-12.79,16.84,3.22-.54,8.37-1.8,16.44-4.64,11.78-4.14,26.1-10.26,41.25-16.73,22.01-9.4,44.77-19.13,64.37-24.85,17.86-5.22,39.81-9.53,51.15,3.6,10.41,12.05,6.71,32.9-11.65,65.62-13.44,23.95-35.34,55.33-65.1,93.27Z"/>
  </g>
</svg>