<?xml version="1.0" encoding="UTF-8"?>
<svg id="Capa_2" data-name="Capa 2" xmlns="http://www.w3.org/2000/svg" xmlns:xlink="http://www.w3.org/1999/xlink" viewBox="0 0 4030.33 2391.38">
  <defs>
    <style>
      .cls-1, .cls-2 {
        fill: #3e7f72;
      }

      .cls-1, .cls-2, .cls-3, .cls-4, .cls-5 {
        stroke-width: 0px;
      }

      .cls-2, .cls-3 {
        opacity: .08;
      }

      .cls-3, .cls-4 {
        fill: none;
      }

      .cls-6 {
        clip-path: url(#clippath-1);
      }

      .cls-7 {
        clip-path: url(#clippath);
      }

      .cls-5 {
        fill: #cce296;
      }

      .cls-8 {
        opacity: .3;
      }
    </style>
    <clipPath id="clippath">
      <rect class="cls-4" x="2149.91" y="1189.38" width="537.87" height="406.58"/>
    </clipPath>
    <clipPath id="clippath-1">
      <rect class="cls-4" x="180.17" y="1246.17" width="537.87" height="406.58"/>
    </clipPath>
  </defs>
  <g id="Layer_1" data-name="Layer 1">
    <polygon class="cls-5" points="4030.33 5.1 4030.33 1595.96 4028.32 1595.96 4028.32 2391.38 0 2391.38 0 1595.95 2.01 1595.95 2.01 5.09 2016.17 5.09 2016.17 5.1 4030.33 5.1"/>
    <rect class="cls-3" x="1595.2" y="844.45" width="841.27" height="751.51"/>
    <g class="cls-8">
      <g class="cls-7">
        <path class="cls-1" d="M2464.44,1570.47c-1.33-.78-2.75-.95-4.23-.51-1.49.44-2.59,1.35-3.3,2.74-.71,1.39-.85,2.87-.41,4.44.43,1.55,1.31,2.72,2.64,3.5,1.33.78,2.72.96,4.19.52,1.49-.44,2.6-1.36,3.33-2.75.73-1.39.88-2.86.45-4.42-.44-1.57-1.32-2.75-2.66-3.53Z"/>
        <polygon class="cls-1" points="2423.71 1581.88 2426.26 1591.05 2454.85 1582.27 2452.46 1573.64 2423.71 1581.88"/>
        <polygon class="cls-1" points="2432.01 1540.46 2416.55 1541.69 2417.53 1550.55 2432.86 1548.18 2432.01 1540.46"/>
        <polygon class="cls-1" points="2433.37 1552.78 2417.93 1554.1 2418.91 1562.96 2434.23 1560.5 2433.37 1552.78"/>
        <path class="cls-1" d="M2433.55,1522.04l.17-8.14,7.9,2.54-.18,8.33,7.41.17.13-6.25,10.18,3.25.16-7.71-6.75-2.13c1.5-1.09,2.92-2.5,4.27-4.24.46-.59.89-1.2,1.29-1.82l1.35.43.06-2.88c.53-1.03,1.01-2.08,1.41-3.16l7.14,1.17,1.31-8.5-7.08-1.16c-.16-3.87-1.28-7.07-3.38-9.62-2.1-2.55-4.65-4.07-7.67-4.56-1.67-.27-3.2-.26-4.6.03-1.4.29-2.6.81-3.59,1.53-1,.73-1.92,1.6-2.75,2.62-.84,1.02-1.57,2.11-2.19,3.29-.62,1.18-1.2,2.36-1.74,3.54-.38.83-.75,1.63-1.11,2.41l-1.1-.35.18-8.23-2.63-.06c.53-.51,1.07-1,1.66-1.45l-6.31-6.57c-1.58,1.02-3.07,2.46-4.45,4.32s-2.5,3.87-3.34,6.04l-7.17-1.18-1.31,8.5,7.04,1.15.08.02c.17,3.45,1.21,6.38,3.11,8.8l-4.65-1.46-.16,7.71,10.12,3.15-.22,10.32,7.41.17ZM2434.31,1506.33c.9-.3,1.69-.7,2.38-1.22.97-.72,1.85-1.59,2.66-2.6.49-.62.93-1.28,1.34-1.95l1.26.4-.17,7.77-7.47-2.4ZM2449.16,1511.01v-.46s.51.63.51.63l-.51-.16ZM2452.84,1489.67c.62,1.36.78,3.03.48,5.02-.11.69-.26,1.35-.45,1.98l-3.39-1.07.18-8.32c.07,0,.14,0,.22.02,1.35.22,2.34,1.01,2.96,2.37Z"/>
        <polygon class="cls-1" points="2465.29 1476.44 2467.71 1469.77 2437.25 1426.45 2434.82 1433.15 2465.29 1476.44"/>
        <path class="cls-1" d="M2432.42,1465.86c2.56.98,5.01.95,7.34-.1,2.33-1.05,3.96-2.86,4.89-5.42.93-2.58.86-5.05-.23-7.42-1.09-2.36-2.92-4.04-5.5-5.03-2.54-.98-4.96-.93-7.25.13-2.29,1.06-3.91,2.89-4.84,5.47-.93,2.56-.86,5.02.2,7.37,1.06,2.35,2.86,4.02,5.4,4.99ZM2433.81,1453.22c.95-.37,2-.33,3.14.11,1.15.44,1.96,1.12,2.45,2.04s.53,1.92.14,3-1.06,1.81-2.01,2.16c-.94.36-1.99.31-3.14-.13-1.15-.44-1.97-1.11-2.45-2.02-.49-.91-.53-1.9-.14-2.99.39-1.09,1.06-1.81,2.01-2.18Z"/>
        <path class="cls-1" d="M2451.04,1425.93c2.58,1.65,5.64,2.29,9.18,1.9-.14,1.37-.18,2.62-.12,3.75.06,1.13.27,2.29.61,3.5.25.88.66,1.7,1.17,2.49-1.83,1.1-3.15,2.76-3.96,4.99-.93,2.56-.86,5.02.19,7.39,1.06,2.36,2.85,4.03,5.39,5.01,2.56.98,5,.94,7.33-.12,2.33-1.06,3.95-2.87,4.88-5.44.87-2.4.84-4.72-.05-6.96,3.29-1.12,5.97-3.36,8.02-6.77,2.25-3.73,3.06-8.08,2.43-13.04l5.36-1.06,6.29-10.42-13.61,2.8-2.47-9.6-7.93,2.27,2.53,8.98-7.5,1.56c.12-1.29.14-2.47.08-3.54-.07-1.07-.26-2.15-.58-3.25-.32-1.1-.85-2.12-1.59-3.07-.74-.95-1.69-1.8-2.85-2.54-2.78-1.78-5.75-2.27-8.91-1.47-3.16.8-5.62,2.67-7.4,5.61-1.8,2.99-2.36,6.13-1.68,9.43s2.42,5.83,5.2,7.62ZM2468.65,1449.65c-.97.37-2.03.33-3.18-.11s-1.95-1.12-2.41-2.04c-.46-.92-.5-1.92-.1-3.01.39-1.09,1.05-1.81,1.98-2.18.85-.33,1.8-.31,2.84.04.14.06.29.11.43.16,1.06.44,1.84,1.09,2.32,1.96.51.91.56,1.91.17,3-.39,1.09-1.07,1.82-2.04,2.18ZM2478.4,1424.19c.26,2.71-.19,5.02-1.34,6.93-.83,1.37-1.94,2.31-3.35,2.81-1.4.5-2.69.38-3.87-.38-1.09-.7-1.81-1.63-2.14-2.8-.34-1.17-.44-2.61-.3-4.33l11-2.24ZM2453.92,1412.99c.63-1.04,1.47-1.69,2.53-1.96s2.08-.09,3.05.53c1.06.68,1.73,1.6,2.02,2.77.29,1.17.33,2.63.13,4.38-1.66.4-3.01.63-4.04.7-1.03.07-1.88-.11-2.52-.52-.97-.62-1.57-1.5-1.79-2.62-.22-1.12-.01-2.21.64-3.29Z"/>
        <polygon class="cls-1" points="2480.44 1390.97 2469.61 1379.54 2463.61 1385.97 2475.22 1396.57 2480.44 1390.97"/>
        <path class="cls-1" d="M2526.7,1382.53c-4.34-2.75-8.16-6.43-11.44-11.03-3.25-4.56-5.52-9.39-6.8-14.52-1.28-5.12-1.37-9.88-.26-14.27l-7.52-1.63c-1.41,5.54-1.4,11.48.03,17.8,1.43,6.32,4.08,12.2,7.95,17.62,3.87,5.42,8.5,9.76,13.89,13.02,5.39,3.26,10.89,5.03,16.49,5.34l.72-7.91c-4.35-.2-8.7-1.67-13.05-4.42Z"/>
        <path class="cls-1" d="M2563.81,1350.37l-3.77-6.59-6.7,4.08-2.1-8.25.34-.21,3.16-1.37-.16-.45,3.54-2.15-3.77-6.59-2.44,1.48-2.66-7.24-2.04.88-.67-2.57-6.36,3.87,2.71,10.55-1.52.93-3.29-8.8-4.24,1.84-.15-.57-6.44,3.92,2.73,10.53-8.62,5.24,3.77,6.59,6.8-4.14,2.07,8.27-6.96,4.23,3.77,6.59,5.22-3.17,2.69,10.63,6.44-3.92-2.71-10.62,6.49-3.95,2.71,10.62,6.39-3.88-2.71-10.62,8.46-5.15ZM2540.47,1355.69l-2.07-8.27,6.49-3.95,2.07,8.27-6.49,3.95Z"/>
        <path class="cls-1" d="M2588.11,1338.04c-1.29-6.6-3.71-12.58-7.27-17.92-3.55-5.35-7.8-9.35-12.72-12l-3.95,6.84c3.9,2.11,7.26,5.37,10.09,9.79,2.83,4.42,4.79,9.4,5.87,14.95,1.09,5.58,1.15,10.96.18,16.13-.97,5.17-2.84,9.49-5.63,12.96l6.22,4.76c3.53-4.48,5.94-9.86,7.22-16.16,1.28-6.3,1.28-12.75-.01-19.35Z"/>
        <polygon class="cls-1" points="2656.42 1330.27 2645.34 1329.36 2646.23 1317.96 2638.05 1317.28 2637.17 1328.68 2632.64 1328.31 2626.63 1321.43 2635.1 1317.94 2632.86 1312.47 2624.72 1315.81 2624.23 1306.97 2618.48 1307.31 2618.97 1316.15 2610.51 1313.79 2608.89 1319.48 2617.75 1321.95 2612.13 1330 2616.67 1333.5 2622.41 1325.32 2625.96 1329.39 2625.43 1336.16 2636.52 1337.08 2635.63 1348.54 2643.8 1349.21 2644.69 1337.75 2655.77 1338.67 2656.42 1330.27"/>
        <polygon class="cls-1" points="2651.29 1363.49 2658.28 1365.4 2666.05 1350.81 2657.63 1348.51 2651.29 1363.49"/>
        <path class="cls-1" d="M2695.74,1366.41c.17-5.25,1.39-10.49,3.65-15.71,2.24-5.16,5.2-9.59,8.88-13.27,3.68-3.68,7.65-6.11,11.9-7.28l-2.34-7.54c-5.37,1.47-10.37,4.41-14.99,8.82-4.63,4.4-8.27,9.68-10.93,15.83-2.66,6.15-4.04,12.44-4.12,18.88-.08,6.44,1.13,12.25,3.64,17.42l7.03-3.27c-1.99-4-2.89-8.63-2.72-13.88Z"/>
        <polygon class="cls-1" points="2707.91 1361.65 2724.89 1372.57 2729.21 1365.43 2712.24 1354.5 2707.91 1361.65"/>
        <path class="cls-1" d="M2747.27,1393.55c-1.1-1.15-2.42-1.74-3.94-1.77-1.53-.03-2.83.51-3.92,1.61-1.1,1.12-1.65,2.47-1.64,4.05,0,1.58.56,2.95,1.66,4.1,1.11,1.16,2.44,1.76,3.98,1.78,1.53.02,2.85-.53,3.95-1.65,1.1-1.12,1.64-2.47,1.62-4.03-.02-1.57-.59-2.93-1.7-4.1Z"/>
        <path class="cls-1" d="M2763,1370.89l-2.67-1.03,5.41-6.88-4.47-3.73-5.41,6.88-4.72-7.62-4.91,3.1,4.95,7.97-9.41,2.06,1.08,5.74,9.58-2.08-.03,6.64-6.06,6.3,6.12,6.39,21.39-21.45-6.5-6.79-4.33,4.51ZM2758.08,1375.33l.47.18-.47.49v-.67Z"/>
        <polygon class="cls-1" points="2786.33 1386.89 2774.04 1396.63 2778.38 1402.98 2791.32 1394.18 2786.33 1386.89"/>
        <path class="cls-1" d="M2818.98,1440.23l2.97-7.31c-5.01-2.47-10.66-3.58-16.96-3.33-6.29.25-12.38,1.83-18.28,4.72-5.9,2.89-10.9,6.76-15.02,11.6-4.12,4.84-6.85,10.07-8.2,15.69l7.4,2.22c1.01-4.37,3.23-8.5,6.67-12.38,3.44-3.88,7.66-7.05,12.67-9.5,4.95-2.43,9.99-3.81,15.11-4.14,5.12-.33,9.66.48,13.64,2.43Z"/>
        <path class="cls-1" d="M2810.8,1461.35l-9.06-3.35-2.01,5.46,9.21,3.43-5.16,8.51,4.87,2.98,2.34-3.86c-.82,1.79-1.04,3.75-.63,5.87.52,2.7,1.85,4.76,3.98,6.19,2.13,1.42,4.54,1.86,7.24,1.3,2.66-.55,4.69-1.9,6.1-4.04,1.41-2.15,1.85-4.57,1.33-7.28-.52-2.68-1.83-4.74-3.93-6.17-1.5-1.02-3.14-1.53-4.93-1.54l-1.73-2.3,8.11-2.92-1.9-5.6-8.11,2.92-.13-9.04-5.76-.03.14,9.46ZM2823.82,1477.64c.22,1.14.02,2.12-.6,2.94-.62.82-1.53,1.36-2.73,1.6-1.2.25-2.24.11-3.12-.4-.88-.52-1.43-1.34-1.65-2.48-.22-1.14-.02-2.11.6-2.93.36-.47.82-.83,1.36-1.11l1.63,2.18,2.77-2.3s.05.02.08.04c.88.51,1.43,1.33,1.64,2.46ZM2814.21,1470.65c-.78.54-1.46,1.19-2.06,1.97l1.58-2.6.48.64Z"/>
        <polygon class="cls-1" points="2832.58 1498.21 2784.6 1477.9 2785.94 1484.88 2833.94 1505.22 2832.58 1498.21"/>
        <path class="cls-1" d="M2804.21,1496.55c-2.1-1.44-4.48-1.88-7.14-1.34-2.68.55-4.74,1.91-6.17,4.07-1.44,2.17-1.9,4.59-1.38,7.27.52,2.68,1.84,4.74,3.97,6.17,2.13,1.43,4.53,1.87,7.21,1.32,2.66-.55,4.69-1.9,6.1-4.06,1.41-2.16,1.85-4.58,1.33-7.26-.52-2.68-1.83-4.74-3.93-6.18ZM2802.3,1506.73c-.6.81-1.5,1.34-2.71,1.59-1.2.25-2.25.12-3.15-.38-.9-.5-1.45-1.32-1.67-2.46-.22-1.14-.01-2.13.63-2.96.64-.84,1.56-1.38,2.76-1.63,1.2-.25,2.23-.1,3.09.43.86.53,1.4,1.36,1.62,2.5.22,1.14.03,2.11-.57,2.92Z"/>
      </g>
    </g>
    <path class="cls-2" d="M1343.89,857.74c-3.51-1.66-6.72-3.37-9.62-5.13-9.71-5.9-15.38-11.96-16.87-18.02-1.94-7.92,1.61-19.91,10.28-34.07h-50.06c-5.99,16.01-7.31,30.99-3.93,44.78,4.43,18.07,16.96,33.47,37.23,45.77,9.28,5.63,20.22,10.69,32.97,15.21.44.17.89.32,1.34.47v-48.39c-.46-.21-.9-.42-1.34-.62ZM1784.03,889.56c-70.51,2.66-133.53,3.46-188.83,2.4-.22,0-.45,0-.67-.01-22.03-.42-42.84-1.14-62.4-2.15,12.06-28.55,21.95-59.58,28.45-89.28,2.04-9.28,3.74-18.42,5.08-27.32,4.03-26.9,4.51-50.25,1.42-69.4-4.07-25.24-14.36-43.28-30.57-53.62-19.41-12.37-46.3-13.05-79.92-2.02-26.1,8.57-55.98,24.39-84.13,44.57-9.5,6.81-18.63,13.98-27.23,21.37-.45.38-.89.76-1.34,1.15-17.8,15.42-33.27,31.73-45.01,47.6-9.69,13.1-16.79,25.68-21.26,37.67-5.99,16.01-7.31,30.99-3.93,44.78,4.43,18.07,16.96,33.47,37.23,45.77,9.28,5.63,20.22,10.69,32.97,15.21.44.17.89.32,1.34.47,14.54,5.08,31.39,9.48,50.79,13.28,19.28,3.78,41.16,6.95,65.62,9.5-20.94,35.09-56.01,80.3-116.41,104.51-.07.03-.13.05-.2.08-.38.15-.76.3-1.14.45-51.68,20.33-100.61,17.21-132.65,10.98l-8.6,44.17c15.9,3.09,35.32,5.53,57.07,5.53,25.5,0,54.22-3.36,84.18-12.94.45-.13.89-.28,1.34-.43,5.46-1.77,10.97-3.76,16.5-5.97,41.51-16.59,77.75-43.3,107.71-79.36,18.91-22.76,32.26-45.58,41.54-62.94,25.67,1.64,53.54,2.75,83.55,3.32.22,0,.45.01.67.01,56.1,1.06,119.68.26,190.52-2.42l-1.69-44.96ZM1484.35,886.53c-30.42-2.66-57.01-6.21-79.66-10.66-24.73-4.85-44.66-10.72-59.46-17.51-.46-.21-.9-.42-1.34-.62-3.51-1.66-6.72-3.37-9.62-5.13-9.71-5.9-15.38-11.96-16.87-18.02-1.94-7.92,1.61-19.91,10.28-34.07,4.21-6.89,9.63-14.29,16.21-21.99.44-.51.89-1.03,1.34-1.55,13.37-15.35,31.3-31.8,53.44-47.67,24.53-17.58,50.08-31.22,71.95-38.39,12.91-4.24,22.18-5.54,28.69-5.54,7.73,0,11.57,1.83,13.01,2.75,4.78,3.05,8.45,11.16,10.34,22.84,2.31,14.36,1.8,33.57-1.5,55.56-1.64,10.9-3.93,22.34-6.78,33.99-7.12,29.09-17.69,59.48-30.03,86.01Z"/>
    <path class="cls-2" d="M2440.71,1760.97c-7.08,0-14.38-.54-21.89-1.64-24.86-3.62-50.88-13.09-77.35-28.16-54.72-31.15-107.2-84.51-147.77-150.23l38.29-23.64c36.68,59.42,83.46,107.28,131.74,134.76,41.64,23.71,80.63,30.17,106.97,17.72,26.28-12.41,40.96-44.78,48.65-69.75,9.06-29.41,13.89-67,12.92-100.54-2.03-70.77-30.78-122.77-51.76-160.74-8.24-14.9-15.35-27.77-19.5-39.39-6.4-17.91-5.2-32.96,3.58-44.73,20.92-28.08,68.4-17.53,107.43-5.21,57.66,18.21,144.13,57.6,256.99,117.1l-20.98,39.81c-100.93-53.21-179.92-89.9-234.75-109.06-45.13-15.77-63.91-16.15-70.7-15.24,2.41,7.99,10.87,23.29,17.31,34.96,21.91,39.63,55.01,99.53,57.36,181.22.53,18.34.13,66.27-14.9,115.08-15.06,48.91-39.43,81.61-72.44,97.2-14.79,6.99-31.28,10.49-49.22,10.49Z"/>
    <path class="cls-2" d="M1587.92,1800.04c-15.3,0-29.58-2.81-42.78-8.45-20.97-8.96-39.08-24.88-53.82-47.31-13.79-20.99-23.98-46.75-30.28-76.55-13.02-61.61-7.94-136.28,14.29-210.24l43.09,12.96c-20.1,66.87-24.85,133.63-13.36,187.99,9.91,46.88,30.95,80.33,57.74,91.78,22.66,9.68,53.19,4.84,90.74-14.38,33.54-17.17,62.97-40.94,78.78-53.7,35.04-28.29,69-67,93.17-106.2,19.15-31.05,26.35-52.87,27.91-63.71-5.72,1.68-15.78,5.68-32.56,15.16-21.37,12.06-46.66,28.89-73.44,46.7-68.34,45.45-133.74,88.95-180.58,88.95-13.41,0-25.29-3.56-35.29-11.66-22.16-17.94-26.94-51.9-14.61-103.84,8.82-37.14,26.01-83.67,52.56-142.25l40.99,18.58c-76.55,168.89-51.72,191.65-50.63,192.53,1.04.84,11.39,7.6,54.63-13.63,32.66-16.03,70.97-41.52,108.02-66.16,31.91-21.23,62.05-41.27,87.26-54.41,14.74-7.68,26.86-12.48,37.07-14.68,20.98-4.52,33.39,2.34,40.1,8.88,5.8,5.66,12.54,16.26,11.68,34.63-2.23,47.53-58.21,141.69-137.99,206.11-15.86,12.81-48.86,39.45-86.54,58.75-31.44,16.1-60.26,24.16-86.15,24.16Z"/>
    <path class="cls-2" d="M2220.88,1276.99c-49.54-73.25-85.67-132.23-107.41-175.29-12.48-24.73-20.43-44.47-24.31-60.34-5.68-23.26-2.53-40.56,9.35-51.43,10.04-9.19,23.91-11.74,41.24-7.59,10.56,2.53,23.18,7.71,38.58,15.83,26.53,14,57.63,34.66,90.57,56.53,30.12,20,61.26,40.69,87.53,55.08,27.4,15.02,40.14,17.97,45.29,18.4.25-5.29-.99-18.99-13.02-49.53-11.36-28.84-28.17-62.71-44.43-95.46-15.46-31.13-30.06-60.54-39.37-84.35-6.79-17.36-20.91-53.49,1.97-70.91,6.75-5.14,18.55-9.76,36.41-2.58,7.73,3.11,16.36,8.21,27.17,16.05,17.95,13.02,39.28,31.81,61.86,51.69,24.78,21.82,50.4,44.39,73.21,60.83,26.13,18.83,37.53,21.41,41.07,21.69,1.72-4.02,6.1-20.4-4.61-70.3-8.33-38.81-24.17-90.61-47.07-153.96l42.32-15.3c25.44,70.36,42.49,127.32,50.7,169.3,8.02,41.07,13.23,90.6-17.93,109.28-26.43,15.84-58.98-2.2-84.38-19.68-26.32-18.11-55.16-43.51-83.05-68.08-18.16-15.99-35.31-31.09-49.97-42.56-2.6-2.04-4.99-3.84-7.16-5.44,1.52,4.05,3.4,8.76,5.75,14.24,8.65,20.25,20.67,44.45,33.39,70.07,18.44,37.13,37.5,75.53,49.54,108.28,11.58,31.49,21.88,70.33-1.4,91.3-23.24,20.93-59.57,6.42-88.62-8.56-30.11-15.53-65.69-39.16-100.09-62.01-28-18.6-54.46-36.17-77.23-49.05-17.8-10.07-28.58-14.44-34.81-16.33,1.75,9.43,7.95,29.17,28.48,67.69,21.3,39.97,54.18,92.89,97.72,157.28l-37.28,25.21Z"/>
    <rect class="cls-3" x="1594.53" y="864.79" width="841.27" height="817.99"/>
    <path class="cls-2" d="M2487.77,132.92c.52,18.34.13,66.27-14.9,115.08-15.06,48.91-39.44,81.61-72.44,97.2-14.79,6.99-31.28,10.49-49.22,10.49-7.08,0-14.38-.54-21.89-1.63-24.86-3.62-50.88-13.09-77.35-28.16-54.72-31.16-107.2-84.51-147.77-150.24l38.29-23.63c36.68,59.41,83.46,107.27,131.74,134.76,41.65,23.71,80.64,30.17,106.98,17.72,26.28-12.41,40.96-44.78,48.65-69.75,9.06-29.41,13.89-67,12.92-100.55-1.52-52.85-17.93-95.23-34.89-129.12h49.74c15.23,34.37,28.67,76.86,30.14,127.83Z"/>
    <path class="cls-2" d="M2737.49,5.1l-18.95,35.95c-10.49-5.53-20.75-10.89-30.76-16.06-13.48-6.96-26.51-13.59-39.11-19.9h39.11s49.71.01,49.71.01Z"/>
    <path class="cls-2" d="M1498.42,394.76c-15.3,0-29.58-2.81-42.78-8.45-20.97-8.96-39.08-24.88-53.82-47.31-13.79-20.99-23.98-46.75-30.28-76.55-13.02-61.61-7.94-136.28,14.29-210.24l43.09,12.96c-20.1,66.87-24.85,133.63-13.36,187.99,9.91,46.88,30.95,80.33,57.74,91.78,22.66,9.68,53.19,4.84,90.74-14.38,33.54-17.17,62.97-40.94,78.78-53.7,35.04-28.29,69-67,93.17-106.2,19.15-31.05,26.35-52.87,27.91-63.71-5.72,1.68-15.78,5.68-32.56,15.16-21.37,12.06-46.66,28.89-73.44,46.7-68.34,45.45-133.74,88.95-180.58,88.95-13.41,0-25.29-3.56-35.29-11.66-22.16-17.94-26.94-51.9-14.61-103.84,8.82-37.14,26.01-83.67,52.56-142.25l40.99,18.58c-76.55,168.89-51.72,191.65-50.63,192.53,1.04.84,11.39,7.6,54.63-13.63,32.66-16.03,70.97-41.52,108.02-66.16,31.91-21.23,62.05-41.27,87.26-54.41,14.74-7.68,26.86-12.48,37.07-14.68,20.98-4.52,33.39,2.34,40.1,8.88,5.8,5.66,12.54,16.26,11.68,34.63-2.23,47.53-58.21,141.69-137.99,206.11-15.86,12.81-48.86,39.45-86.54,58.75-31.44,16.1-60.26,24.16-86.15,24.16Z"/>
    <path class="cls-2" d="M1783.35,2294.83c-70.5,2.66-133.53,3.46-188.82,2.42-.23-.01-.45-.01-.67-.02-22.04-.42-42.84-1.14-62.4-2.16,15.82-37.45,27.91-79.17,33.53-116.59,4.03-26.9,4.51-50.25,1.42-69.4-4.07-25.25-14.36-43.28-30.57-53.62-19.41-12.38-46.3-13.06-79.92-2.02-26.1,8.56-55.98,24.39-84.13,44.56-9.75,6.98-19.1,14.35-27.9,21.94-.45.39-.9.77-1.34,1.16-17.52,15.26-32.75,31.36-44.34,47.02-22.63,30.59-31.1,58.33-25.19,82.46,4.43,18.06,16.96,33.46,37.23,45.77,9.12,5.53,19.83,10.51,32.3,14.96.44.17.89.33,1.34.48,14.68,5.18,31.76,9.65,51.46,13.52,19.28,3.78,41.16,6.95,65.62,9.49-10.51,17.62-24.59,37.79-43.64,56.58h59.75c14.6-19.18,25.37-37.79,33.23-52.49,25.67,1.64,53.54,2.75,83.55,3.32.22,0,.45.01.67.01,56.1,1.06,119.68.26,190.52-2.42l-1.7-44.97ZM1520.49,2171.8c-5.72,38.12-19.53,82.86-36.81,120-30.42-2.65-57.01-6.2-79.66-10.65-25.1-4.92-45.26-10.9-60.13-17.83-.45-.2-.9-.41-1.34-.63-3.25-1.55-6.23-3.16-8.95-4.81-9.71-5.89-15.38-11.95-16.87-18.02-2.85-11.63,6.17-32.06,25.82-55.26.44-.52.89-1.04,1.34-1.57,13.44-15.57,31.6-32.31,54.11-48.45,24.53-17.58,50.08-31.21,71.95-38.39,12.91-4.23,22.17-5.53,28.69-5.53,7.73,0,11.57,1.83,13.01,2.74,4.78,3.05,8.45,11.17,10.34,22.85,2.31,14.36,1.8,33.57-1.5,55.55Z"/>
    <path class="cls-2" d="M2139.08,2387.62c3.78.9,7.83,2.15,12.18,3.76h-48.39c9.47-6,21.61-7.26,36.21-3.76Z"/>
    <path class="cls-2" d="M2589.88,2391.38h-117.25c-22.86-17.07-47.16-38.45-70.76-59.24-18.15-15.99-35.3-31.09-49.96-42.56-2.61-2.04-4.99-3.84-7.16-5.44,1.52,4.05,3.4,8.77,5.74,14.25,8.66,20.24,20.67,44.45,33.4,70.07,3.78,7.61,7.58,15.27,11.34,22.92h-50.21c-.48-.97-.96-1.94-1.44-2.91-15.46-31.13-30.06-60.54-39.37-84.35-6.79-17.36-20.91-53.48,1.97-70.91,6.76-5.14,18.55-9.76,36.41-2.58,7.73,3.11,16.37,8.21,27.17,16.05,17.95,13.02,39.28,31.8,61.85,51.69,24.78,21.82,50.41,44.39,73.22,60.82,26.13,18.83,37.53,21.42,41.07,21.69,1.72-4.02,6.11-20.4-4.6-70.3-8.34-38.81-24.17-90.61-47.07-153.96l42.31-15.3c25.44,70.36,42.5,127.32,50.7,169.29,5.27,26.99,9.33,57.63,2.64,80.77Z"/>
    <g class="cls-8">
      <g class="cls-6">
        <path class="cls-1" d="M494.7,1627.26c-1.33-.78-2.75-.95-4.23-.51-1.49.44-2.59,1.35-3.3,2.74-.71,1.39-.85,2.87-.41,4.44.43,1.55,1.31,2.72,2.64,3.5,1.33.78,2.72.96,4.19.52,1.49-.44,2.6-1.36,3.33-2.75.73-1.39.88-2.86.45-4.42-.44-1.57-1.32-2.75-2.66-3.53Z"/>
        <polygon class="cls-1" points="453.97 1638.67 456.51 1647.84 485.11 1639.06 482.71 1630.43 453.97 1638.67"/>
        <polygon class="cls-1" points="462.27 1597.25 446.81 1598.48 447.79 1607.34 463.12 1604.97 462.27 1597.25"/>
        <polygon class="cls-1" points="463.63 1609.57 448.18 1610.89 449.17 1619.76 464.48 1617.29 463.63 1609.57"/>
        <path class="cls-1" d="M463.8,1578.83l.17-8.14,7.9,2.54-.18,8.33,7.41.17.13-6.25,10.18,3.25.16-7.71-6.75-2.13c1.5-1.09,2.92-2.5,4.27-4.24.46-.59.89-1.2,1.29-1.82l1.35.43.06-2.88c.53-1.03,1.01-2.08,1.41-3.16l7.14,1.17,1.31-8.5-7.08-1.16c-.16-3.87-1.28-7.07-3.38-9.62-2.1-2.55-4.65-4.07-7.67-4.56-1.67-.27-3.2-.26-4.6.03-1.4.29-2.6.81-3.59,1.53-1,.73-1.92,1.6-2.75,2.62-.84,1.02-1.57,2.11-2.19,3.29-.62,1.18-1.2,2.36-1.74,3.54-.38.83-.75,1.63-1.11,2.41l-1.1-.35.18-8.23-2.63-.06c.53-.51,1.07-1,1.66-1.45l-6.31-6.57c-1.58,1.02-3.07,2.46-4.45,4.32s-2.5,3.87-3.34,6.04l-7.17-1.18-1.31,8.5,7.04,1.15.08.02c.17,3.45,1.21,6.38,3.11,8.8l-4.65-1.46-.16,7.71,10.12,3.15-.22,10.32,7.41.17ZM464.57,1563.12c.9-.3,1.69-.7,2.38-1.22.97-.72,1.85-1.59,2.66-2.6.49-.62.93-1.28,1.34-1.95l1.26.4-.17,7.77-7.47-2.4ZM479.41,1567.81v-.46s.51.63.51.63l-.51-.16ZM483.1,1546.46c.62,1.36.78,3.03.48,5.02-.11.69-.26,1.35-.45,1.98l-3.39-1.07.18-8.32c.07,0,.14,0,.22.02,1.35.22,2.34,1.01,2.96,2.37Z"/>
        <polygon class="cls-1" points="495.55 1533.23 497.96 1526.56 467.5 1483.24 465.08 1489.94 495.55 1533.23"/>
        <path class="cls-1" d="M462.68,1522.65c2.56.98,5.01.95,7.34-.1,2.33-1.05,3.96-2.86,4.89-5.42.93-2.58.86-5.05-.23-7.42-1.09-2.36-2.92-4.04-5.5-5.03-2.54-.98-4.96-.93-7.25.13-2.29,1.06-3.91,2.89-4.84,5.47-.93,2.56-.86,5.02.2,7.37,1.06,2.35,2.86,4.02,5.4,4.99ZM464.06,1510.01c.95-.37,2-.33,3.14.11,1.15.44,1.96,1.12,2.45,2.04s.53,1.92.14,3-1.06,1.81-2.01,2.16c-.94.36-1.99.31-3.14-.13-1.15-.44-1.97-1.11-2.45-2.02-.49-.91-.53-1.9-.14-2.99.39-1.09,1.06-1.81,2.01-2.18Z"/>
        <path class="cls-1" d="M481.3,1482.73c2.58,1.65,5.64,2.29,9.18,1.9-.14,1.37-.18,2.62-.12,3.75.06,1.13.27,2.29.61,3.5.25.88.66,1.7,1.17,2.49-1.83,1.1-3.15,2.76-3.96,4.99-.93,2.56-.86,5.02.19,7.39,1.06,2.36,2.85,4.03,5.39,5.01,2.56.98,5,.94,7.33-.12,2.33-1.06,3.95-2.87,4.88-5.44.87-2.4.84-4.72-.05-6.96,3.29-1.12,5.97-3.36,8.02-6.77,2.25-3.73,3.06-8.08,2.43-13.04l5.36-1.06,6.29-10.42-13.61,2.8-2.47-9.6-7.93,2.27,2.53,8.98-7.5,1.56c.12-1.29.14-2.47.08-3.54-.07-1.07-.26-2.15-.58-3.25-.32-1.1-.85-2.12-1.59-3.07-.74-.95-1.69-1.8-2.85-2.54-2.78-1.78-5.75-2.27-8.91-1.47-3.16.8-5.62,2.67-7.4,5.61-1.8,2.99-2.36,6.13-1.68,9.43s2.42,5.83,5.2,7.62ZM498.9,1506.44c-.97.37-2.03.33-3.18-.11s-1.95-1.12-2.41-2.04c-.46-.92-.5-1.92-.1-3.01.39-1.09,1.05-1.81,1.98-2.18.85-.33,1.8-.31,2.84.04.14.06.29.11.43.16,1.06.44,1.84,1.09,2.32,1.96.51.91.56,1.91.17,3-.39,1.09-1.07,1.82-2.04,2.18ZM508.65,1480.98c.26,2.71-.19,5.02-1.34,6.93-.83,1.37-1.94,2.31-3.35,2.81-1.4.5-2.69.38-3.87-.38-1.09-.7-1.81-1.63-2.14-2.8-.34-1.17-.44-2.61-.3-4.33l11-2.24ZM484.18,1469.78c.63-1.04,1.47-1.69,2.53-1.96s2.08-.09,3.05.53c1.06.68,1.73,1.6,2.02,2.77.29,1.17.33,2.63.13,4.38-1.66.4-3.01.63-4.04.7-1.03.07-1.88-.11-2.52-.52-.97-.62-1.57-1.5-1.79-2.62-.22-1.12-.01-2.21.64-3.29Z"/>
        <polygon class="cls-1" points="510.7 1447.76 499.86 1436.33 493.87 1442.76 505.48 1453.36 510.7 1447.76"/>
        <path class="cls-1" d="M556.95,1439.32c-4.34-2.75-8.16-6.43-11.44-11.03-3.25-4.56-5.52-9.39-6.8-14.52-1.28-5.12-1.37-9.88-.26-14.27l-7.52-1.63c-1.41,5.54-1.4,11.48.03,17.8,1.43,6.32,4.08,12.2,7.95,17.62,3.87,5.42,8.5,9.76,13.89,13.02,5.39,3.26,10.89,5.03,16.49,5.34l.72-7.91c-4.35-.2-8.7-1.67-13.05-4.42Z"/>
        <path class="cls-1" d="M594.06,1407.16l-3.77-6.59-6.7,4.08-2.1-8.25.34-.21,3.16-1.37-.16-.45,3.54-2.15-3.77-6.59-2.44,1.48-2.66-7.24-2.04.88-.67-2.57-6.36,3.87,2.71,10.55-1.52.93-3.29-8.8-4.24,1.84-.15-.57-6.44,3.92,2.73,10.53-8.62,5.24,3.77,6.59,6.8-4.14,2.07,8.27-6.96,4.23,3.77,6.59,5.22-3.17,2.69,10.63,6.44-3.92-2.71-10.62,6.49-3.95,2.71,10.62,6.39-3.88-2.71-10.62,8.46-5.15ZM570.72,1412.48l-2.07-8.27,6.49-3.95,2.07,8.27-6.49,3.95Z"/>
        <path class="cls-1" d="M618.37,1394.83c-1.29-6.6-3.71-12.58-7.27-17.92-3.55-5.35-7.8-9.35-12.72-12l-3.95,6.84c3.9,2.11,7.26,5.37,10.09,9.79,2.83,4.42,4.79,9.4,5.87,14.95,1.09,5.58,1.15,10.96.18,16.13-.97,5.17-2.84,9.49-5.63,12.96l6.22,4.76c3.53-4.48,5.94-9.86,7.22-16.16,1.28-6.3,1.28-12.75-.01-19.35Z"/>
        <polygon class="cls-1" points="686.68 1387.06 675.6 1386.15 676.48 1374.75 668.31 1374.07 667.43 1385.47 662.89 1385.1 656.89 1378.22 665.36 1374.73 663.12 1369.26 654.97 1372.61 654.48 1363.76 648.74 1364.1 649.23 1372.94 640.77 1370.58 639.15 1376.28 648.01 1378.74 642.39 1386.79 646.93 1390.29 652.66 1382.11 656.21 1386.18 655.69 1392.95 666.77 1393.87 665.88 1405.33 674.06 1406.01 674.95 1394.54 686.03 1395.46 686.68 1387.06"/>
        <polygon class="cls-1" points="681.55 1420.28 688.54 1422.19 696.31 1407.6 687.89 1405.3 681.55 1420.28"/>
        <path class="cls-1" d="M725.99,1423.2c.17-5.25,1.39-10.49,3.65-15.71,2.24-5.16,5.2-9.59,8.88-13.27,3.68-3.68,7.65-6.11,11.9-7.28l-2.34-7.54c-5.37,1.47-10.37,4.41-14.99,8.82-4.63,4.4-8.27,9.68-10.93,15.83-2.66,6.15-4.04,12.44-4.12,18.88-.08,6.44,1.13,12.25,3.64,17.42l7.03-3.27c-1.99-4-2.89-8.63-2.72-13.88Z"/>
        <polygon class="cls-1" points="738.17 1418.44 755.14 1429.37 759.47 1422.22 742.49 1411.29 738.17 1418.44"/>
        <path class="cls-1" d="M777.53,1450.34c-1.1-1.15-2.42-1.74-3.94-1.77-1.53-.03-2.83.51-3.92,1.61-1.1,1.12-1.65,2.47-1.64,4.05,0,1.58.56,2.95,1.66,4.1,1.11,1.16,2.44,1.76,3.98,1.78,1.53.02,2.85-.53,3.95-1.65,1.1-1.12,1.64-2.47,1.62-4.03-.02-1.57-.59-2.93-1.7-4.1Z"/>
        <path class="cls-1" d="M793.25,1427.68l-2.67-1.03,5.41-6.88-4.47-3.73-5.41,6.88-4.72-7.62-4.91,3.1,4.95,7.97-9.41,2.06,1.08,5.74,9.58-2.08-.03,6.64-6.06,6.3,6.12,6.39,21.39-21.45-6.5-6.79-4.33,4.51ZM788.33,1432.12l.47.18-.47.49v-.67Z"/>
        <polygon class="cls-1" points="816.59 1443.69 804.3 1453.43 808.64 1459.77 821.58 1450.97 816.59 1443.69"/>
        <path class="cls-1" d="M849.24,1497.02l2.97-7.31c-5.01-2.47-10.66-3.58-16.96-3.33-6.29.25-12.38,1.83-18.28,4.72-5.9,2.89-10.9,6.76-15.02,11.6-4.12,4.84-6.85,10.07-8.2,15.69l7.4,2.22c1.01-4.37,3.23-8.5,6.67-12.38,3.44-3.88,7.66-7.05,12.67-9.5,4.95-2.43,9.99-3.81,15.11-4.14,5.12-.33,9.66.48,13.64,2.43Z"/>
        <path class="cls-1" d="M841.06,1518.15l-9.06-3.35-2.01,5.46,9.21,3.43-5.16,8.51,4.87,2.98,2.34-3.86c-.82,1.79-1.04,3.75-.63,5.87.52,2.7,1.85,4.76,3.98,6.19,2.13,1.42,4.54,1.86,7.24,1.3,2.66-.55,4.69-1.9,6.1-4.04,1.41-2.15,1.85-4.57,1.33-7.28-.52-2.68-1.83-4.74-3.93-6.17-1.5-1.02-3.14-1.53-4.93-1.54l-1.73-2.3,8.11-2.92-1.9-5.6-8.11,2.92-.13-9.04-5.76-.03.14,9.46ZM854.07,1534.43c.22,1.14.02,2.12-.6,2.94-.62.82-1.53,1.36-2.73,1.6-1.2.25-2.24.11-3.12-.4-.88-.52-1.43-1.34-1.65-2.48-.22-1.14-.02-2.11.6-2.93.36-.47.82-.83,1.36-1.11l1.63,2.18,2.77-2.3s.05.02.08.04c.88.51,1.43,1.33,1.64,2.46ZM844.47,1527.44c-.78.54-1.46,1.19-2.06,1.97l1.58-2.6.48.64Z"/>
        <polygon class="cls-1" points="862.84 1555 814.85 1534.69 816.2 1541.67 864.19 1562.01 862.84 1555"/>
        <path class="cls-1" d="M834.46,1553.34c-2.1-1.44-4.48-1.88-7.14-1.34-2.68.55-4.74,1.91-6.17,4.07-1.44,2.17-1.9,4.59-1.38,7.27.52,2.68,1.84,4.74,3.97,6.17,2.13,1.43,4.53,1.87,7.21,1.32,2.66-.55,4.69-1.9,6.1-4.06,1.41-2.16,1.85-4.58,1.33-7.26-.52-2.68-1.83-4.74-3.93-6.18ZM832.56,1563.52c-.6.81-1.5,1.34-2.71,1.59-1.2.25-2.25.12-3.15-.38-.9-.5-1.45-1.32-1.67-2.46-.22-1.14-.01-2.13.63-2.96.64-.84,1.56-1.38,2.76-1.63,1.2-.25,2.23-.1,3.09.43.86.53,1.4,1.36,1.62,2.5.22,1.14.03,2.11-.57,2.92Z"/>
      </g>
    </g>
    <path class="cls-2" d="M470.97,1817.77c-7.08,0-14.38-.54-21.89-1.64-24.86-3.62-50.88-13.09-77.35-28.16-54.72-31.15-107.2-84.51-147.77-150.23l38.29-23.64c36.68,59.42,83.46,107.28,131.74,134.76,41.64,23.71,80.63,30.17,106.97,17.72,26.28-12.41,40.96-44.78,48.65-69.75,9.06-29.41,13.89-67,12.92-100.54-2.03-70.77-30.78-122.77-51.76-160.74-8.24-14.9-15.35-27.77-19.5-39.39-6.4-17.91-5.2-32.96,3.58-44.73,20.92-28.08,68.4-17.53,107.43-5.21,57.66,18.21,144.13,57.6,256.99,117.1l-20.98,39.81c-100.93-53.21-179.92-89.9-234.75-109.06-45.13-15.77-63.91-16.15-70.7-15.24,2.41,7.99,10.87,23.29,17.31,34.96,21.91,39.63,55.01,99.53,57.36,181.22.53,18.34.13,66.27-14.9,115.08-15.06,48.91-39.43,81.61-72.44,97.2-14.79,6.99-31.28,10.49-49.22,10.49Z"/>
    <path class="cls-2" d="M251.13,1333.78c-49.54-73.25-85.67-132.23-107.41-175.29-12.48-24.73-20.43-44.47-24.31-60.34-5.68-23.26-2.53-40.56,9.35-51.43,10.04-9.19,23.91-11.74,41.24-7.59,10.56,2.53,23.18,7.71,38.58,15.83,26.53,14,57.63,34.66,90.57,56.53,30.12,20,61.26,40.69,87.53,55.08,27.4,15.02,40.14,17.97,45.29,18.4.25-5.29-.99-18.99-13.02-49.53-11.36-28.84-28.17-62.71-44.43-95.46-15.46-31.13-30.06-60.54-39.37-84.35-6.79-17.36-20.91-53.49,1.97-70.91,6.75-5.14,18.55-9.76,36.41-2.58,7.73,3.11,16.36,8.21,27.17,16.05,17.95,13.02,39.28,31.81,61.86,51.69,24.78,21.82,50.4,44.39,73.21,60.83,26.13,18.83,37.53,21.41,41.07,21.69,1.72-4.02,6.1-20.4-4.61-70.3-8.33-38.81-24.17-90.61-47.07-153.96l42.32-15.3c25.44,70.36,42.49,127.32,50.7,169.3,8.02,41.07,13.23,90.6-17.93,109.28-26.43,15.84-58.98-2.2-84.38-19.68-26.32-18.11-55.16-43.51-83.05-68.08-18.16-15.99-35.31-31.09-49.97-42.56-2.6-2.04-4.99-3.84-7.16-5.44,1.52,4.05,3.4,8.76,5.75,14.24,8.65,20.25,20.67,44.45,33.39,70.07,18.44,37.13,37.5,75.53,49.54,108.28,11.58,31.49,21.88,70.33-1.4,91.3-23.24,20.93-59.57,6.42-88.62-8.56-30.11-15.53-65.69-39.16-100.09-62.01-28-18.6-54.46-36.17-77.23-49.05-17.8-10.07-28.58-14.44-34.81-16.33,1.75,9.43,7.95,29.17,28.48,67.69,21.3,39.97,54.18,92.89,97.72,157.28l-37.28,25.21Z"/>
    <rect class="cls-3" x="1.34" y="5.09" width="375.88" height="242.38"/>
    <path class="cls-2" d="M518.02,189.71c.53,18.34.13,66.28-14.9,115.08-15.06,48.91-39.43,81.61-72.43,97.2-14.79,6.99-31.28,10.5-49.22,10.5-7.08,0-14.38-.55-21.89-1.64-24.86-3.62-50.88-13.09-77.35-28.16-22.27-12.68-44.17-29.04-65.05-48.4-26.46-24.55-51.27-53.94-73.12-86.82-3.27-4.92-6.48-9.93-9.61-15.01l38.3-23.64c8.35,13.51,17.21,26.43,26.51,38.65,27.26,35.86,58.16,65.68,90.13,86.82,5.01,3.31,10.05,6.41,15.1,9.29,41.64,23.71,80.63,30.17,106.98,17.72,26.28-12.41,40.96-44.78,48.65-69.75,9.05-29.41,13.89-67,12.92-100.55-2.03-70.76-30.77-122.77-51.76-160.74-5.03-9.08-9.63-17.41-13.4-25.17h50.9c.64,1.16,1.27,2.3,1.88,3.41,21.91,39.63,55.01,99.53,57.36,181.21Z"/>
    <path class="cls-2" d="M769.78,58.03l-20.98,39.81c-77.33-40.77-141.78-71.84-192.34-92.75h108.96c31.77,15.36,66.59,33.03,104.36,52.94Z"/>
    <path class="cls-2" d="M461.87,2355.16c13.9,12.24,28.07,24.72,41.85,36.22h-68.81c-.93-.82-1.86-1.63-2.78-2.45-18.16-15.99-35.31-31.09-49.97-42.56-2.6-2.03-4.98-3.84-7.15-5.43,1.51,4.04,3.4,8.76,5.74,14.24,4.71,11.03,10.42,23.24,16.71,36.2h-49.81c-5.04-10.87-9.51-21.1-13.18-30.46-6.79-17.36-20.92-53.49,1.97-70.92,6.75-5.14,18.55-9.76,36.41-2.58,7.73,3.11,16.36,8.21,27.17,16.05,17.95,13.02,39.27,31.81,61.85,51.69Z"/>
    <path class="cls-2" d="M621.52,2391.38h-45.52c-1.06-6.98-2.51-14.94-4.45-24.01-8.33-38.81-24.16-90.61-47.07-153.96l42.32-15.3c25.44,70.36,42.5,127.32,50.7,169.3,1.52,7.77,2.94,15.85,4.02,23.97Z"/>
    <path class="cls-2" d="M3557.2,888.07c-70.5,2.67-133.53,3.47-188.82,2.42-.23-.01-.45-.01-.67-.02-22.04-.42-42.84-1.14-62.4-2.15,11.85-28.07,21.61-58.54,28.12-87.79,2.18-9.78,4-19.43,5.4-28.81,4.04-26.9,4.52-50.25,1.43-69.4-4.08-25.24-14.36-43.28-30.57-53.62-19.41-12.37-46.3-13.05-79.92-2.02-26.11,8.56-55.99,24.39-84.14,44.57-29.77,21.34-55.9,46.24-73.57,70.12-10.09,13.64-17.37,26.71-21.81,39.16-5.52,15.45-6.66,29.92-3.38,43.29,4.43,18.06,16.95,33.47,37.23,45.77,20.07,12.19,47.91,21.66,85.1,28.96,19.27,3.78,41.16,6.95,65.62,9.5-20.97,35.13-56.09,80.4-116.62,104.59-52.09,20.83-101.5,17.71-133.79,11.43l-8.59,44.17c15.89,3.09,35.31,5.53,57.06,5.53,30.54,0,65.66-4.81,102.02-19.34,41.52-16.6,77.76-43.3,107.72-79.36,18.9-22.76,32.26-45.58,41.54-62.94,25.67,1.64,53.54,2.75,83.55,3.32.22,0,.45.01.67.01,56.1,1.06,119.68.26,190.52-2.42l-1.7-44.97ZM3257.53,885.04c-30.42-2.65-57.01-6.2-79.67-10.65-31.46-6.17-55.15-14-70.41-23.26-9.71-5.9-15.39-11.96-16.88-18.03-1.87-7.64,1.37-19.06,9.38-32.57,12.61-21.27,37.03-47.72,71.89-72.71,24.53-17.57,50.09-31.21,71.96-38.39,12.9-4.23,22.17-5.53,28.68-5.53,7.73,0,11.58,1.83,13.01,2.75,4.78,3.04,8.46,11.16,10.34,22.84,2.32,14.36,1.8,33.57-1.5,55.56-1.71,11.36-4.13,23.31-7.15,35.48-7.11,28.63-17.52,58.44-29.65,84.51Z"/>
    <path class="cls-2" d="M3361.1,1798.56c-15.3,0-29.58-2.81-42.78-8.45-20.97-8.96-39.08-24.88-53.82-47.31-13.79-20.99-23.98-46.75-30.28-76.55-13.02-61.61-7.94-136.28,14.29-210.24l43.09,12.96c-20.1,66.87-24.85,133.63-13.36,187.99,9.91,46.88,30.95,80.33,57.74,91.78,22.66,9.68,53.19,4.84,90.74-14.38,33.54-17.17,62.97-40.94,78.78-53.7,35.04-28.29,69-67,93.17-106.2,19.15-31.05,26.35-52.87,27.91-63.71-5.72,1.68-15.78,5.68-32.56,15.16-21.37,12.06-46.66,28.89-73.44,46.7-68.34,45.45-133.74,88.95-180.58,88.95-13.41,0-25.29-3.56-35.29-11.66-22.16-17.94-26.94-51.9-14.61-103.84,8.82-37.14,26.01-83.67,52.56-142.25l40.99,18.58c-76.55,168.89-51.72,191.65-50.63,192.53,1.04.84,11.39,7.6,54.63-13.63,32.66-16.03,70.97-41.52,108.02-66.16,31.91-21.23,62.05-41.27,87.26-54.41,14.74-7.68,26.86-12.48,37.07-14.68,20.98-4.52,33.39,2.34,40.1,8.88,5.8,5.66,12.54,16.26,11.68,34.63-2.23,47.53-58.21,141.69-137.99,206.11-15.86,12.81-48.86,39.45-86.54,58.75-31.44,16.1-60.26,24.16-86.15,24.16Z"/>
    <path class="cls-2" d="M3582.28,104.26c-2.22,47.53-58.21,141.69-137.99,206.11-15.86,12.8-48.86,39.45-86.55,58.74-31.43,16.1-60.25,24.16-86.15,24.17-15.3,0-29.58-2.82-42.77-8.46-20.98-8.96-39.08-24.87-53.82-47.31-13.8-20.99-23.98-46.75-30.28-76.55-13.02-61.61-7.94-136.27,14.29-210.24l43.1,12.95c-20.1,66.87-24.85,133.63-13.36,187.99,9.9,46.88,30.95,80.34,57.74,91.78,22.67,9.68,53.2,4.84,90.75-14.38,33.54-17.18,62.97-40.94,78.78-53.7,35.04-28.3,69-67.01,93.17-106.2,19.14-31.05,26.35-52.87,27.91-63.71-5.72,1.68-15.78,5.68-32.56,15.16-21.37,12.06-46.66,28.88-73.44,46.7-68.34,45.45-133.74,88.95-180.59,88.95-13.4,0-25.29-3.56-35.29-11.66-22.16-17.93-26.94-51.9-14.61-103.84,8.49-35.74,24.72-80.17,49.6-135.66h17.49l26.46,11.99c-76.55,168.9-51.72,191.65-50.63,192.54,1.04.83,11.4,7.59,54.63-13.63,32.66-16.04,70.97-41.52,108.01-66.16,31.92-21.23,62.06-41.28,87.26-54.41,14.74-7.68,26.87-12.49,37.07-14.68,20.98-4.52,33.39,2.33,40.1,8.88,5.81,5.66,12.54,16.26,11.68,34.63Z"/>
    <path class="cls-2" d="M3556.53,2293.35c-70.5,2.66-133.53,3.46-188.82,2.42-.23-.01-.45-.01-.67-.02-22.04-.42-42.84-1.14-62.4-2.16,15.81-37.46,27.91-79.17,33.52-116.59,4.04-26.9,4.52-50.25,1.43-69.4-4.08-25.25-14.36-43.29-30.57-53.62-19.41-12.38-46.3-13.06-79.92-2.03-26.11,8.57-55.99,24.4-84.14,44.57-29.77,21.34-55.9,46.24-73.57,70.12-22.63,30.59-31.11,58.33-25.19,82.46,4.43,18.06,16.95,33.46,37.23,45.77,20.07,12.19,47.91,21.66,85.1,28.96,19.27,3.78,41.16,6.94,65.62,9.49-10.8,18.09-25.34,38.87-45.18,58.06h60.14c15.18-19.69,26.32-38.89,34.38-53.97,25.67,1.64,53.53,2.75,83.55,3.32.22,0,.45.01.67.01,56.09,1.06,119.68.26,190.52-2.42l-1.7-44.97ZM3293.66,2170.32c-5.72,38.12-19.52,82.86-36.8,120-30.42-2.65-57.01-6.21-79.67-10.65-31.46-6.17-55.15-14-70.41-23.27-9.71-5.89-15.39-11.96-16.88-18.02-4.82-19.67,24.26-64.42,81.27-105.28,24.53-17.58,50.09-31.21,71.96-38.39,12.9-4.23,22.17-5.53,28.68-5.53,7.73,0,11.58,1.83,13.01,2.74,4.78,3.05,8.46,11.16,10.34,22.85,2.32,14.36,1.8,33.57-1.5,55.55Z"/>
  </g>
</svg>