<?xml version="1.0" encoding="UTF-8"?>
<svg id="Capa_2" data-name="Capa 2" xmlns="http://www.w3.org/2000/svg" viewBox="0 0 3343.98 4342.62">
  <defs>
    <style>
      .cls-1 {
        fill: #fff;
        opacity: .08;
        stroke-width: 0px;
      }
    </style>
  </defs>
  <g id="Layer_1" data-name="Layer 1">
    <g>
      <path class="cls-1" d="M1472.44,829.92c-11.87,0-24.14-.92-36.78-2.76-42.32-6.16-86.79-22.38-132.17-48.21-46.06-26.22-91.1-61.27-133.86-104.17-45.14-45.29-86.46-98.11-122.82-157.02l45.1-27.84c66.03,106.97,150.48,193.26,237.8,242.97,77.49,44.11,150.93,55.71,201.5,31.82,50.88-24.03,78.71-84.78,93.1-131.51,16.43-53.34,25.19-121.44,23.45-182.16-3.69-128.42-55.44-222.04-93.22-290.41-14.29-25.85-26.63-48.17-33.61-67.72-3.63-10.15-14.67-41.03,4.47-66.71,12.96-17.39,34.91-26.2,65.25-26.2.13,0,.26,0,.38,0,27.76.07,63.66,7.17,109.74,21.72,101.25,31.97,253.47,101.36,452.43,206.24l-24.71,46.88c-196.16-103.41-345.43-171.56-443.67-202.58-40.31-12.73-71.91-19.21-93.91-19.26-.09,0-.18,0-.27,0-15.11,0-21.49,3.18-22.75,4.87-.56.75-1.23,5.54,2.94,17.2,5.54,15.51,16.92,36.09,30.09,59.92,38.13,68.99,95.75,173.25,99.82,314.52.91,31.79.23,114.84-25.77,199.28-11.51,37.37-26.47,69.62-44.46,95.86-21.39,31.18-47.18,54.06-76.65,67.98-24.36,11.51-51.64,17.29-81.42,17.29Z"/>
      <path class="cls-1" d="M1472.44,2003.02c-11.87,0-24.14-.92-36.78-2.76-42.32-6.16-86.79-22.38-132.17-48.21-46.06-26.22-91.1-61.27-133.86-104.17-45.14-45.29-86.46-98.11-122.82-157.02l45.1-27.84c66.03,106.97,150.48,193.26,237.8,242.97,77.49,44.11,150.93,55.71,201.5,31.82,50.88-24.03,78.71-84.78,93.1-131.51,16.43-53.34,25.19-121.44,23.45-182.16-3.69-128.42-55.44-222.04-93.22-290.41-14.29-25.85-26.63-48.17-33.61-67.72-3.63-10.15-14.67-41.03,4.47-66.71,12.96-17.39,34.91-26.2,65.25-26.2.13,0,.26,0,.38,0,27.76.07,63.66,7.17,109.74,21.72,101.25,31.97,253.47,101.36,452.43,206.24l-24.71,46.88c-196.16-103.41-345.43-171.56-443.67-202.58-40.31-12.73-71.91-19.21-93.91-19.26-.09,0-.18,0-.27,0-15.11,0-21.49,3.18-22.75,4.87-.56.75-1.23,5.54,2.94,17.2,5.54,15.51,16.92,36.09,30.09,59.92,38.13,68.99,95.75,173.25,99.82,314.52.91,31.79.23,114.84-25.77,199.28-11.51,37.37-26.47,69.62-44.46,95.86-21.39,31.18-47.18,54.06-76.65,67.98-24.36,11.51-51.64,17.29-81.42,17.29Z"/>
    </g>
    <g>
      <path class="cls-1" d="M1472.44,3169.52c-11.87,0-24.14-.92-36.78-2.76-42.32-6.16-86.79-22.38-132.17-48.21-46.06-26.22-91.1-61.27-133.86-104.17-45.14-45.29-86.46-98.11-122.82-157.02l45.1-27.84c66.03,106.97,150.48,193.26,237.8,242.97,77.49,44.11,150.93,55.71,201.5,31.82,50.88-24.03,78.71-84.78,93.1-131.51,16.43-53.34,25.19-121.44,23.45-182.16-3.69-128.42-55.44-222.04-93.22-290.41-14.29-25.85-26.63-48.17-33.61-67.72-3.63-10.15-14.67-41.03,4.47-66.71,12.96-17.39,34.91-26.2,65.25-26.2.13,0,.26,0,.38,0,27.76.07,63.66,7.17,109.74,21.72,101.25,31.97,253.47,101.36,452.43,206.24l-24.71,46.88c-196.16-103.41-345.43-171.56-443.67-202.58-40.31-12.73-71.91-19.21-93.91-19.26-.09,0-.18,0-.27,0-15.11,0-21.49,3.18-22.75,4.87-.56.75-1.23,5.54,2.94,17.2,5.54,15.51,16.92,36.09,30.09,59.92,38.13,68.99,95.75,173.25,99.82,314.52.91,31.79.23,114.84-25.77,199.28-11.51,37.37-26.47,69.62-44.46,95.86-21.39,31.18-47.18,54.06-76.65,67.98-24.36,11.51-51.64,17.29-81.42,17.29Z"/>
      <path class="cls-1" d="M1472.44,4342.62c-11.87,0-24.14-.92-36.78-2.76-42.32-6.16-86.79-22.38-132.17-48.21-46.06-26.22-91.1-61.27-133.86-104.17-45.14-45.29-86.46-98.11-122.82-157.02l45.1-27.84c66.03,106.97,150.48,193.26,237.8,242.97,77.49,44.11,150.93,55.71,201.5,31.82,50.88-24.03,78.71-84.78,93.1-131.51,16.43-53.34,25.19-121.44,23.45-182.16-3.69-128.42-55.44-222.04-93.22-290.41-14.29-25.85-26.63-48.17-33.61-67.72-3.63-10.15-14.67-41.03,4.47-66.71,12.96-17.39,34.91-26.2,65.25-26.2.13,0,.26,0,.38,0,27.76.07,63.66,7.17,109.74,21.72,101.25,31.97,253.47,101.36,452.43,206.24l-24.71,46.88c-196.16-103.41-345.43-171.56-443.67-202.58-40.31-12.73-71.91-19.21-93.91-19.26-.09,0-.18,0-.27,0-15.11,0-21.49,3.18-22.75,4.87-.56.75-1.23,5.54,2.94,17.2,5.54,15.51,16.92,36.09,30.09,59.92,38.13,68.99,95.75,173.25,99.82,314.52.91,31.79.23,114.84-25.77,199.28-11.51,37.37-26.47,69.62-44.46,95.86-21.39,31.18-47.18,54.06-76.65,67.98-24.36,11.51-51.64,17.29-81.42,17.29Z"/>
    </g>
  </g>
</svg>