<?xml version="1.0" encoding="UTF-8"?>
<svg id="Capa_2" data-name="Capa 2" xmlns="http://www.w3.org/2000/svg" viewBox="0 0 556.1 73.3">
  <defs>
    <style>
      .cls-1 {
        fill: #356d5e;
        stroke-width: 0px;
      }
    </style>
  </defs>
  <g id="Layer_1" data-name="Layer 1">
    <g>
      <path class="cls-1" d="M31.12,40.33c8.28,0,16.56.02,24.85-.02,1.47,0,2.9.01,4.13.93,1.32.99,2.29,2.28,2.31,3.96.06,6.45.04,12.9.05,19.35,0,.88.03,1.76.03,2.64,0,.69-.02,1.38-.62,1.88-.51.43-1.06.73-1.74.42-.7-.32-1.18-.76-1.2-1.65-.03-1.81-.07-1.8-1.92-1.8-11.92,0-23.85,0-35.77,0-5.23,0-10.46,0-15.68,0-.6,0-1.4-.17-1.74.14-.33.29-.19,1.11-.24,1.71-.08.97-.9,1.74-1.86,1.71C.76,69.56,0,68.75,0,67.74c0-7.25.05-14.51.01-21.76-.02-3.27,2.63-5.73,5.61-5.68,4.86.08,9.72.02,14.59.02,3.64,0,7.28,0,10.92,0h0ZM31.09,55.05s0,.01,0,.02c7.94,0,15.88,0,23.82,0,1.07,0,2.15-.02,3.22-.05.55-.02.82-.29.81-.89-.03-2.66-.03-5.32-.04-7.99,0-1.45-.67-2.2-2.12-2.22-2.32-.04-4.64.01-6.96.01-14.66,0-29.31,0-43.97,0-1.61,0-2.28.67-2.28,2.26,0,2.59,0,5.18-.02,7.77,0,.78.3,1.11,1.08,1.11.68,0,1.37,0,2.05,0,8.13,0,16.27,0,24.4,0ZM31.15,58.52v.02c-7.33,0-14.66,0-21.99,0-1.56,0-3.13,0-4.69-.01-.62,0-.96.15-.92.87.05.75,0,1.51,0,2.27,0,.52.24.76.76.75,1.22-.02,2.44-.02,3.66-.02,14.71,0,29.41,0,44.12,0,2,0,4,.03,6,.05.49,0,.81-.22.82-.73.02-.78,0-1.56,0-2.34,0-.61-.31-.84-.93-.84-8.94.01-17.88,0-26.82,0Z"/>
      <path class="cls-1" d="M522.64,70.43c-6.24,0-12.48,0-18.72,0-1.39,0-2.52-.47-3.22-1.67-.54-.93-.48-1.99-.41-3.04.11-1.65.19-3.31.21-4.96.03-2.68,0-5.36,0-8.05,0-3.26,0-6.51,0-9.77,0-2.85-.04-5.71.02-8.56.02-.98.86-1.51,1.6-2.01.68-.46,1.45-.46,2.26-.45,3.09.04,6.18-.02,9.26-.02,3.34,0,6.69.05,10.03.06,5.43,0,10.86,0,16.29-.02.49,0,.98-.02,1.47-.05,1.26-.07,2.22.54,2.91,1.48.36.5.59,1.22.59,1.84.03,5.83-.02,11.67-.03,17.5,0,4.69.03,9.37.03,14.06,0,1.66-.93,2.98-2.48,3.57-.15.06-.33.05-.5.05-6.43,0-12.86,0-19.3,0,0,0,0,0,0,0ZM522.62,61s0,.04,0,.05c3.19,0,6.39,0,9.58,0,2.92,0,5.84-.02,8.75,0,.59,0,.95-.19.97-.81.02-.66.01-1.31.02-1.97.01-4.09.02-8.18.03-12.26,0-3.28,0-6.55,0-9.83,0-.8-.47-1.24-1.29-1.21-1.04.04-2.08.1-3.12.1-9.67,0-19.34,0-29.01,0-1.53,0-3.06-.08-4.59-.11-.46,0-.78.19-.76.72.02.6.05,1.19.05,1.79-.02,7.43-.05,14.85-.08,22.28,0,1.18.06,1.29,1.22,1.3,1.92,0,3.83-.03,5.75-.04,4.15,0,8.31,0,12.46,0ZM522.58,63.83s0-.02,0-.02c-6.22,0-12.44,0-18.65,0-.62,0-.74.15-.69.76.04.57.04,1.14.01,1.72-.04.77-.03.83.78.84,2.15.03,4.3.04,6.45.04,6.88.01,13.76.02,20.63.02,3.26,0,6.52,0,9.77,0,1.02,0,1.18-.23,1.05-1.24-.05-.37,0-.76.03-1.13.06-.62-.25-.98-.86-.98-6.18,0-12.35,0-18.53,0Z"/>
      <path class="cls-1" d="M383.35,23.6c5.99,0,11.97.02,17.96-.01,1.72,0,2.29.67,2.4,2.32.05.75,0,1.51-.05,2.27-.03.66.19.9.9.9.85,0,1.71-.03,2.56,0,2.16.06,4.16.68,5.86,2,4.75,3.69,4.6,10.67.36,14.19-1.8,1.49-3.77,2.17-6.05,2.13-1.2-.02-2.39.01-3.59-.01-.58-.01-.84.23-1.04.78-1.58,4.28-4.45,7.44-8.44,9.63-4.55,2.49-9.44,2.96-14.44,2.28-5.33-.73-9.83-3.12-13.12-7.51-1.4-1.86-2.28-3.93-2.83-6.2-.49-2.03-.55-4.05-.55-6.11.01-4.76.05-9.53,0-14.29-.02-1.6.93-2.37,2.35-2.36,5.91.07,11.83.03,17.74.03,0,0,0-.02,0-.03ZM383.11,32.79v-.06c-5.13,0-10.26,0-15.38,0-.67,0-.82.33-.82.91.03,3.15-.05,6.3.08,9.45.12,3.12,1.2,5.96,3.31,8.27,2.16,2.37,4.82,3.99,8,4.73,5,1.17,9.84.93,14.41-1.6,4.54-2.51,7.05-6.38,7.29-11.57.15-3.17.02-6.35.03-9.52,0-.51-.24-.71-.72-.69-.56.03-1.12.08-1.68.08-4.84,0-9.67,0-14.51,0ZM406.22,32.79h0c-.39,0-.78,0-1.17-.01-1.35-.05-1.35-.04-1.35,1.28-.02,2.9-.05,5.81-.09,8.71-.01.86.19,1.12,1.03,1.14.93.02,1.86.03,2.78-.02,4.12-.22,6.27-3.78,5.25-7.24-.66-2.23-2.97-4.04-5.35-3.86-.36.03-.73,0-1.1,0ZM383.44,27.32v-.05c-5.25,0-10.5,0-15.75,0-.69,0-.87.31-.88.94,0,.67.33.83.91.83,3.22,0,6.45.01,9.67.02,7.28.02,14.55.03,21.83.05.67,0,.83-.37.85-.92.02-.57-.15-.97-.82-.93-.54.03-1.07.07-1.61.07-4.74,0-9.47,0-14.21,0Z"/>
      <path class="cls-1" d="M268.23,3.49c4.88.15,8.37,1.31,11.45,3.55,3.06,2.23,5.29,5.16,6.51,8.74,1.33,3.9,1.24,7.84-.07,11.79-2.09,6.31-4.93,12.28-8.03,18.13-2.12,3.99-4.33,7.92-6.51,11.87-.41.74-.92,1.43-1.37,2.16-.61.99-2.35.99-3.07-.28-1.84-3.25-3.7-6.49-5.5-9.76-1.46-2.65-2.89-5.32-4.22-8.04-1.28-2.6-2.45-5.26-3.6-7.93-.71-1.63-1.39-3.29-1.91-4.99-.57-1.86-1.04-3.76-1.38-5.68-.36-2.03.12-4.03.58-6.01.59-2.53,1.81-4.73,3.42-6.73,1.53-1.89,3.37-3.43,5.54-4.58,2.89-1.53,5.96-2.25,8.16-2.24ZM269.16,7.15c-3.33.02-6.06.85-8.59,2.53-2.54,1.68-4.3,3.94-5.44,6.72-1.39,3.36-1.39,6.76-.13,10.14.97,2.63,1.94,5.27,3.06,7.84,2.65,6.07,5.8,11.89,9.05,17.66.42.75.82,1.5,1.26,2.23.37.6.66.58,1-.01.23-.4.44-.81.66-1.22,1.45-2.71,2.93-5.41,4.36-8.13,1.25-2.38,2.55-4.73,3.65-7.17,1.77-3.91,3.54-7.8,4.83-11.92,1.09-3.5.93-6.82-.59-9.97-2.68-5.53-7.19-8.52-13.1-8.69Z"/>
      <path class="cls-1" d="M494.06,39.89c-.68,0-1.37.06-2.04-.02-.47-.06-.92-.3-1.36-.49-.67-.29-1.44-1.7-1.5-2.43-.14-1.61.72-2.5,2.04-3.18.99-.52,1.9-1.18,2.87-1.74,1.53-.88,3.09-1.71,4.62-2.58,1.43-.82,2.83-1.69,4.25-2.52,2.18-1.27,4.36-2.54,6.54-3.8,1.68-.97,3.37-1.94,5.05-2.9,1.93-1.1,3.85-2.21,5.79-3.29.59-.33.89-.75.8-1.44-.05-.38.01-.77-.04-1.15-.07-.47.13-.83.5-1.02.52-.27,1.09-.58,1.66-.63,1.77-.16,3.1-1.05,3.76-2.58.42-.97,1.14-2.1.29-3.31-.29-.42-.34-1.01-.52-1.51-.4-1.11-1.44-1.48-2.33-2.04-1.34-.85-2.66-.29-3.97.07-.3.08-.56.38-.8.61-.69.66-1.41,1.3-1.74,2.23-.12.35-.15.74-.15,1.11,0,.84-.51,1.71-1.26,2.05-.56.25-1.54-.21-1.61-.85-.17-1.55-.14-3.09.88-4.42.52-.67,1-1.37,1.56-2.01.78-.89,1.84-1.26,2.95-1.64C521.36.05,522.38,0,523.44,0c.3,0,.6.14.9.24.53.18,1.07.35,1.58.57,1.34.56,2.35,1.51,3.11,2.71.52.83,1,1.71,1.32,2.63.21.62.11,1.34.14,2.02.09,1.81-.75,3.26-1.83,4.6-.51.62-1.11,1.18-1.74,1.69-.34.28-.79.42-1.21.6-.48.21-.99.36-1.45.6-.46.24-.39.68.17,1.02.65.4,1.32.76,1.99,1.15,2.33,1.34,4.65,2.69,6.98,4.04,2,1.16,4.02,2.29,6.01,3.46,1.75,1.02,3.46,2.1,5.22,3.11,1.56.89,3.16,1.72,4.73,2.59.76.42,1.51.87,2.24,1.33,1.23.78,2.48,1.55,3.66,2.4.88.63,1.01,1.86.64,2.89-.4,1.12-1.31,1.61-2.21,2.15-.17.1-.41.09-.62.09-1.24,0-2.47-.02-3.71-.03-.81,0-1.02-.22-1.02-1.02,0-.4,0-.81-.03-1.21-.03-.46.2-.67.64-.67.92,0,1.85.04,2.77.01.27,0,.53-.18.79-.28-.15-.22-.25-.52-.46-.65-.67-.43-1.38-.8-2.06-1.2-1.13-.66-2.26-1.34-3.39-2-.86-.5-1.73-.95-2.58-1.45-1.44-.85-2.87-1.73-4.31-2.57-1.24-.72-2.51-1.4-3.75-2.12-2.03-1.18-4.05-2.38-6.08-3.56-1.21-.7-2.42-1.39-3.63-2.08-.97-.56-1.94-1.12-2.91-1.68-.41-.24-.82-.31-1.27-.07-1.19.65-2.4,1.25-3.58,1.92-1.25.71-2.46,1.5-3.7,2.23-1.3.77-2.62,1.52-3.93,2.28-1,.58-2,1.15-3,1.73-1.78,1.03-3.56,2.05-5.33,3.09-2.01,1.18-4,2.39-6.01,3.56-1.22.71-2.46,1.38-3.69,2.09-.15.09-.24.29-.36.44.18.11.36.31.54.31,1.01,0,2.03-.02,3.04-.08.45-.03.65.15.67.56.02.64.02,1.28.01,1.92,0,.39-.23.56-.63.55-.68-.02-1.36,0-2.04,0,0,0,0,0,0,0Z"/>
      <path class="cls-1" d="M276.3,57.33c.07.22.16.44.2.67.39,2.56.79,5.11,1.16,7.67.09.63.35.94,1.03.99.58.04,1.15.23,1.72.37,1.96.48,3.93.97,5.89,1.47.26.07.5.21.76.27.27.06.55.05.82.06.02-.28.11-.57.04-.83-.28-1.04-.61-2.06-.93-3.09-1.37-4.41-2.74-8.81-4.1-13.22-.2-.65-.4-1.31-.57-1.97-.12-.46-.33-.8-.85-.88-.46-.07-.54-.37-.35-.75.38-.74.74-1.48,1.16-2.2.1-.17.39-.33.59-.34,1.05-.03,2.04.6,2.38,1.63.95,2.92,1.85,5.86,2.77,8.8,1.01,3.24,2.02,6.48,3.03,9.72.53,1.72,1.07,3.45,1.57,5.18.45,1.54-.76,2.74-2.33,2.35-4.33-1.08-8.67-2.15-13-3.25-1.13-.29-2.18-.01-3.25.25-3.91.98-7.81,1.99-11.72,2.95-.48.12-1.03.14-1.5.03-2.73-.64-5.45-1.33-8.17-2-1.9-.47-3.79-.95-5.7-1.37-1.53-.34-2.21-1.28-1.87-2.8.97-4.26,1.95-8.52,2.93-12.78.78-3.4,1.55-6.8,2.31-10.21.24-1.07.91-1.85,1.73-1.96.74-.1,1.68.45,2.13,1.31.79,1.54,1.55,3.1,2.32,4.65.05.1.06.23.12.5-.32-.12-.54-.17-.72-.29-.54-.33-1.07-.69-1.6-1.04-.63-.42-.91-.33-1.08.42-.46,2-.88,4.01-1.34,6-.85,3.64-1.7,7.28-2.58,10.91-.44,1.83-.49,1.86,1.3,2.35,2.73.74,5.48,1.43,8.22,2.13.55.14.88-.14.88-.74,0-3.64-.01-7.28-.04-10.92,0-.88-.07-1.75-.1-2.63,0-.13.07-.26.14-.54.21.26.36.41.46.58.95,1.65,1.9,3.3,2.82,4.97.16.28.21.65.21.98,0,2.52,0,5.03-.02,7.55,0,.74.16.9.85.73,2.79-.71,5.58-1.43,8.37-2.15.12-.03.24-.07.36-.08,1.56-.05,1.32-.38,1.23-1.6-.06-.9-.31-1.78-.44-2.67-.05-.32-.08-.72.06-.98.71-1.34,1.48-2.64,2.22-3.96.07-.13.13-.26.2-.39.1.04.19.08.29.12Z"/>
      <path class="cls-1" d="M31.09,18.22c6.18,0,12.36,0,18.54,0,2.83,0,5.53,2.57,5.54,5.38.02,4.22,0,8.45,0,12.67,0,1.4-1.13,2.34-2.34,1.99-.77-.22-1.36-1.02-1.36-1.89.02-4.18.04-8.35.07-12.53,0-1.05-.86-1.97-1.91-1.97-11.8,0-23.6.01-35.4.02-.42,0-.83-.01-1.24-.03-1.62-.08-1.98.9-2,2.09-.04,2.66-.01,5.32-.01,7.99,0,1.49.02,2.98,0,4.47,0,1.05-.8,1.94-1.71,1.96-1.01.02-1.99-.92-1.99-1.96,0-4.2-.05-8.4.06-12.6.08-3.13,1.99-5.33,5.28-5.51,2.02-.11,4.05-.05,6.08-.05,4.13,0,8.26,0,12.39,0v-.02Z"/>
      <path class="cls-1" d="M187.22,21.83c-.11.85-.57,1.34-1.16,1.66-.6.33-1.26.21-1.79-.22-.77-.64-1.49-1.34-2.24-2-4.22-3.73-9-6.52-14.32-8.38-7.49-2.61-15.14-3.12-22.89-1.53-7.99,1.64-14.97,5.29-20.9,10.91-.34.32-.66.67-1.03.93-.63.44-1.33.65-2.06.22-.7-.41-1.04-1.04-.93-1.84.04-.31.22-.65.43-.88,2.31-2.44,4.97-4.45,7.76-6.32,3.31-2.23,6.88-3.94,10.65-5.14,2.73-.87,5.58-1.42,8.41-1.92,3.95-.69,7.94-.64,11.91-.15,3.32.41,6.58,1.15,9.76,2.24,3.75,1.29,7.26,3.04,10.54,5.23,2.57,1.7,4.96,3.65,7.11,5.85.35.35.5.89.74,1.34Z"/>
      <path class="cls-1" d="M153.44,53.04c-4.96.25-9.11-4.2-9.06-9.13.06-5.43,4.48-9.21,9.19-9.13,5.19.09,9.08,4.1,9.11,9.15.03,4.93-4.04,9.35-9.24,9.11ZM159.04,43.92c-.07-3.06-2.32-5.43-5.28-5.52-3.13-.1-5.76,2.16-5.78,5.51-.02,3.04,2.5,5.61,5.5,5.62,3.09.01,5.56-2.49,5.56-5.61Z"/>
      <path class="cls-1" d="M153.85,21.9c5.64.14,10.85,1.71,15.49,4.99,1.29.91,2.45,2,3.62,3.07.72.65.68,1.81.02,2.51-.66.71-1.72.75-2.5.12-1.46-1.18-2.85-2.47-4.42-3.48-3.86-2.46-8.13-3.62-12.72-3.59-3.78.03-7.34.95-10.73,2.61-2.03,1-3.78,2.41-5.5,3.86-.21.17-.39.37-.6.53-.85.66-1.89.63-2.5-.07-.69-.78-.65-1.86.15-2.63,2.28-2.21,4.82-4.04,7.72-5.37,3.79-1.74,7.77-2.56,11.97-2.56Z"/>
      <path class="cls-1" d="M383.41,67.65c-5.45,0-10.89,0-16.34,0-1.1,0-1.82-.61-1.89-1.54-.08-1.15.48-1.83,1.66-2,.29-.04.58-.08.87-.08,10.06,0,20.12.02,30.19.03.73,0,1.47-.04,2.2.03,1.45.13,2.15,1.59,1.38,2.81-.39.62-1,.73-1.66.73-2.44,0-4.88.01-7.33.01-3.03,0-6.06,0-9.09,0Z"/>
      <path class="cls-1" d="M31.37,31.02c-1.73,0-3.47,0-5.2,0-1.76,0-2.33.61-2.28,2.35.03.98.02,1.95.02,2.93,0,.97-.52,1.7-1.36,1.95-.88.27-1.53.03-2.12-.85-.15-.22-.21-.54-.22-.82-.02-1.15,0-2.3,0-3.44.02-2.8,1.76-5.01,4.49-5.65.3-.07.63-.04.95-.04,3.76,0,7.52-.02,11.29-.01,2.15,0,4.38,1.67,4.97,3.57.59,1.92.34,3.82.33,5.73,0,.96-1.01,1.66-1.95,1.6-.87-.06-1.65-.9-1.67-1.84-.02-1.1,0-2.2.03-3.3.04-1.34-.73-2.18-2.07-2.19-1.73,0-3.47,0-5.2,0h0Z"/>
      <path class="cls-1" d="M392.2,10.9c1.72-.44,2.87,1.35,1.93,2.72-1.29,1.86-2.51,3.77-3.82,5.63-.51.72-1.51.78-2.31.27-.75-.48-1.06-1.41-.65-2.16.42-.77.96-1.47,1.41-2.22.12-.2.12-.48.17-.72-.25-.05-.49-.13-.74-.15-.43-.02-.88.06-1.31,0-1.31-.18-1.98-1.61-1.26-2.72,1.18-1.82,2.4-3.62,3.63-5.41.55-.79,1.42-1.05,2.33-.78.59.18,1.18,1.17.95,1.86-.23.7-.65,1.35-.99,2.01-.21.41-.43.82-.65,1.22.43.15.86.3,1.3.45Z"/>
      <path class="cls-1" d="M375.87,5.27c.97-.04,1.46.35,1.8.92.33.56.4,1.14,0,1.72-.47.68-.94,1.36-1.38,2.06-.1.16-.19.44-.11.58.07.14.35.21.54.22.44.02.88-.06,1.31,0,1.49.17,2.18,1.53,1.37,2.8-1.2,1.86-2.44,3.7-3.69,5.53-.52.76-1.64.99-2.34.53-.79-.51-1.13-1.57-.67-2.39.4-.72.92-1.38,1.35-2.09.11-.19.24-.54.15-.64-.14-.16-.44-.23-.69-.25-.46-.04-.93.03-1.38-.03-1.21-.18-1.87-1.42-1.25-2.48.77-1.32,1.66-2.58,2.51-3.86.4-.61.86-1.18,1.22-1.82.35-.62.88-.79,1.27-.8Z"/>
      <path class="cls-1" d="M159.19,66.07c-.98,0-1.95-.02-2.93.01-.26,0-.7.14-.72.27-.05.26.06.65.24.84.67.69,1.54.81,2.44.62.59-.12,1.18-.32,1.75-.51.73-.24.94-.11.99.64.1,1.69-.13,2.04-1.82,2.24-1.06.12-2.15.19-3.2.06-2.16-.29-3.67-1.91-3.81-4.09-.07-1.03.03-2.11.27-3.11.53-2.16,2.42-3.22,4.59-3.17,3.56.07,4.72,2.59,4.48,5.52-.04.49-.33.74-.83.74-.49,0-.98,0-1.46,0,0-.02,0-.05,0-.07ZM156.92,63.73s0,0,0,.01c.24,0,.5.04.73-.01.22-.05.53-.16.58-.31.05-.17-.1-.46-.25-.63-.48-.54-1.61-.58-2.14-.05-.16.16-.29.47-.25.69.02.13.37.24.59.29.23.05.49.01.73.01Z"/>
      <path class="cls-1" d="M169.13,66.1c-.46,0-.93-.02-1.39.01-.24.02-.66.11-.68.22-.04.28.02.65.19.85.54.61,1.29.81,2.07.7.72-.1,1.43-.29,2.12-.53.78-.27.99-.18,1.01.63.04,1.94.04,1.99-1.9,2.26-.89.13-1.8.17-2.7.1-3.09-.26-4.53-2.81-4.26-5.74.11-1.16.34-2.28,1.18-3.24,1.62-1.83,5.35-2.18,7.38.17.38.45.55,1.14.66,1.74.13.69.07,1.41.1,2.12.02.49-.23.71-.72.7-1.02,0-2.05,0-3.07,0,0,0,0,0,0,.01ZM168.36,63.74s0,0,0,0c.29,0,.59.03.87,0,.17-.02.45-.11.48-.23.05-.17-.02-.43-.14-.58-.49-.66-1.24-.8-1.93-.34-.27.18-.44.52-.66.79.31.12.62.26.93.36.13.04.29,0,.44,0Z"/>
      <path class="cls-1" d="M134.08,63.77c0-1.88.02-3.76,0-5.64,0-.63.21-.88.85-.87,2.03.02,4.05.02,6.08,0,.52,0,.78.18.78.72,0,2.24.36,2.02-1.91,2.08-.59.01-1.17,0-1.76-.04-.56-.04-.82.22-.83.76,0,.02,0,.05,0,.07-.02,1.54-.24,2.01,1.66,1.83.58-.06,1.17.01,1.76,0,.48,0,.72.23.76.69,0,.02,0,.05,0,.07.19,1.96.03,2.13-1.97,2.04-.41-.02-.83-.04-1.24-.07-.72-.05-.96.17-.95.93,0,1.02.02,2.05.02,3.07,0,.83-.16.97-1,.99-.49,0-.98-.02-1.46,0-.57.02-.78-.24-.78-.8.02-1.95,0-3.91,0-5.86Z"/>
      <path class="cls-1" d="M143.39,65.68c0-1.53.01-3.07,0-4.6,0-.47.17-.78.63-.82.8-.08,1.67-.39,2.14.68.16.37.45.26.7,0,.72-.72,1.6-.97,2.6-.91.51.03.79.26.76.77-.04.61-.05,1.23-.22,1.81-.07.23-.5.43-.8.51-.39.11-.83.04-1.22.15-.92.27-1.25.76-1.27,1.73-.02,1.49-.04,2.97-.02,4.46,0,.69-.26.99-.95.97-.49-.02-.98,0-1.46.01-.63.03-.88-.27-.87-.88.01-1.29,0-2.58,0-3.88h-.03Z"/>
      <path class="cls-1" d="M268.97,29.14c-5.09.23-9.12-3.95-9.3-8.53-.24-5.97,4.15-9.64,9.03-9.75,4.94-.11,9.33,3.83,9.29,9.21-.04,4.77-3.71,9.08-9.02,9.06ZM268.77,25.59c2.96,0,5.5-2.28,5.57-5.45.06-3.12-2.43-5.67-5.42-5.66-3.15.02-5.71,2.53-5.71,5.61,0,2.93,2.61,5.52,5.56,5.51Z"/>
    </g>
  </g>
</svg>