<?xml version="1.0" encoding="UTF-8"?>
<svg id="Capa_2" data-name="Capa 2" xmlns="http://www.w3.org/2000/svg" viewBox="0 0 136.86 105.36">
  <defs>
    <style>
      .cls-1 {
        fill: #fff;
        stroke-width: 0px;
      }
    </style>
  </defs>
  <g id="Layer_1" data-name="Layer 1">
    <g>
      <path class="cls-1" d="M10.68,98.25c-.29-.29-.61-.55-.98-.78s-.76-.41-1.17-.55c-.41-.14-.82-.28-1.22-.39-.41-.12-.79-.23-1.16-.34-.37-.11-.7-.23-.98-.36-.29-.13-.51-.29-.68-.49-.17-.19-.25-.42-.25-.68,0-.35.16-.63.48-.85s.74-.33,1.25-.33c.59,0,1.21.15,1.87.45.65.3,1.25.71,1.78,1.22l1.77-2.42c-.55-.63-1.32-1.16-2.31-1.58-.99-.42-1.94-.63-2.87-.63-1.47,0-2.68.41-3.63,1.24-.95.83-1.42,1.87-1.42,3.11,0,.56.08,1.06.25,1.5.17.44.39.8.67,1.08.28.28.61.53.97.75.37.22.75.39,1.15.52.4.13.81.26,1.21.37.41.11.79.22,1.16.32.37.1.69.22.97.34.28.12.51.28.68.47.17.19.25.42.25.67,0,.46-.2.82-.6,1.1-.4.28-.93.41-1.58.41-.79,0-1.51-.17-2.15-.52-.64-.35-1.27-.84-1.88-1.48l-1.95,2.23c.62.79,1.5,1.44,2.63,1.96,1.13.52,2.25.78,3.35.78.82,0,1.57-.13,2.25-.38.68-.25,1.24-.59,1.68-1.01.44-.42.78-.9,1.02-1.44.24-.53.36-1.09.36-1.67s-.08-1.07-.25-1.52c-.17-.45-.39-.82-.68-1.11"/>
      <polygon class="cls-1" points="21.33 100.67 17.04 90.72 13.33 90.72 13.33 105.16 16.38 105.16 16.38 96.68 19.99 105.16 22.19 105.16 25.89 96.68 25.89 105.16 28.94 105.16 28.94 90.72 25.83 90.72 21.33 100.67"/>
      <path class="cls-1" d="M35.89,90.72l-5.74,14.45h3.24l.93-2.42h5.57l.91,2.42h3.32l-5.76-14.45h-2.47ZM35.33,100.13l1.8-4.61,1.75,4.61h-3.56Z"/>
      <path class="cls-1" d="M54.85,97.6c.41-.7.61-1.5.61-2.42,0-.81-.21-1.55-.62-2.24-.42-.69-.97-1.23-1.67-1.63-.7-.4-1.45-.59-2.26-.59h-5.57v14.45h3.05v-5.51h1.56l3.26,5.51h3.72l-3.78-5.98c.72-.36,1.28-.88,1.69-1.58M51.86,96.53c-.34.32-.76.48-1.26.48h-2.21v-3.34h2.21c.5,0,.92.16,1.26.48.34.32.51.71.51,1.17s-.17.89-.51,1.21"/>
      <polygon class="cls-1" points="56.29 93.65 60.51 93.65 60.51 105.16 63.56 105.16 63.56 93.65 67.79 93.65 67.79 90.72 56.29 90.72 56.29 93.65"/>
      <path class="cls-1" d="M121.96,76.24c-1.26.07-2.99,1.11-3.6,2.21-2.46,4.41-5.91,7.42-10.77,8.74-8.76,2.37-15.47-1.79-21.83-11.03,1.15-.26,2.27-.55,3.41-.77,16.8-3.28,29.81-18.72,30.18-35.82C119.81,17.71,103,.18,81.16.07,55.25-.06,29.34.03,3.43.04c-1.01,0-2.03.12-3.21.2v17.19h4.22c18.82,0,37.65,0,56.47,0,6.97,0,13.95-.14,20.91.06,10.94.31,19.48,8.59,20.16,19.28.7,10.95-6.72,20.3-17.68,21.85-3.88.55-7.89.16-11.81.45-2.58.19-4.34-.75-6.05-2.59-7.42-8.01-14.88-15.98-22.47-23.83-6.37-6.59-14.34-8.99-23.24-7.34C7.35,27.78-1.15,39.75.13,53.73c1.12,12.37,12.2,22.3,25.23,22.44,11.04.11,22.08-.05,33.11.12,1.62.03,3.61.89,4.75,2.03,5.17,5.17,10.1,10.59,15.12,15.91,10.74,11.4,27.08,14.24,40.85,6.84,9.77-5.26,15.64-13.47,17.66-24.93-5.22,0-10.07-.15-14.91.1M24.15,58.66c-3.97-.24-6.46-3.35-6.88-7.21-.39-3.58,1.08-6.37,4.16-8.18,3.36-1.97,7.05-1.58,9.9,1.28,4.47,4.48,8.75,9.16,13.56,14.22-7.41,0-14.1.29-20.75-.11"/>
    </g>
  </g>
</svg>