<?xml version="1.0" encoding="UTF-8"?>
<svg id="Capa_2" data-name="Capa 2" xmlns="http://www.w3.org/2000/svg" viewBox="0 0 192.2 147.97">
  <defs>
    <style>
      .cls-1 {
        fill: #356d5e;
        stroke-width: 0px;
      }
    </style>
  </defs>
  <g id="Layer_1" data-name="Layer 1">
    <path class="cls-1" d="M15,137.97c-.4-.41-.86-.77-1.38-1.09s-1.07-.58-1.64-.78c-.58-.2-1.15-.39-1.72-.55-.57-.17-1.12-.33-1.63-.48-.52-.16-.98-.33-1.38-.51-.4-.18-.72-.41-.95-.69-.24-.27-.35-.59-.35-.96,0-.49.22-.89.67-1.2s1.03-.46,1.76-.46c.83,0,1.7.21,2.62.63.92.42,1.75.99,2.5,1.72l2.49-3.4c-.77-.89-1.85-1.62-3.24-2.21-1.39-.59-2.73-.88-4.03-.88-2.07,0-3.76.58-5.09,1.75-1.33,1.16-1.99,2.62-1.99,4.36,0,.78.12,1.48.35,2.1.24.62.55,1.12.95,1.52.4.4.85.75,1.37,1.05.51.3,1.05.55,1.62.74.57.19,1.13.36,1.71.52.57.16,1.11.31,1.63.45.51.15.97.3,1.37.47.4.17.71.39.95.67.24.27.35.59.35.95,0,.64-.28,1.16-.85,1.54-.57.39-1.31.58-2.22.58-1.11,0-2.12-.25-3.01-.74-.9-.49-1.78-1.18-2.65-2.08l-2.74,3.13c.88,1.1,2.11,2.02,3.69,2.75,1.58.73,3.16,1.1,4.71,1.1,1.15,0,2.2-.18,3.16-.53.96-.35,1.74-.83,2.36-1.42.62-.59,1.1-1.27,1.44-2.02.34-.75.51-1.53.51-2.34s-.12-1.5-.35-2.13c-.24-.63-.55-1.15-.95-1.56"/>
    <polygon class="cls-1" points="29.95 141.37 23.92 127.4 18.72 127.4 18.72 147.68 23 147.68 23 135.77 28.07 147.68 31.17 147.68 36.36 135.77 36.36 147.68 40.65 147.68 40.65 127.4 36.27 127.4 29.95 141.37"/>
    <path class="cls-1" d="M50.41,127.4l-8.06,20.29h4.56l1.3-3.4h7.82l1.27,3.4h4.67l-8.09-20.29h-3.47ZM49.61,140.61l2.53-6.48,2.46,6.48h-4.99Z"/>
    <path class="cls-1" d="M77.03,137.06c.58-.98.86-2.11.86-3.4,0-1.13-.29-2.18-.88-3.15-.58-.97-1.37-1.73-2.35-2.28-.98-.56-2.04-.83-3.17-.83h-7.82v20.29h4.29v-7.74h2.19l4.58,7.74h5.22l-5.31-8.4c1.01-.5,1.8-1.24,2.38-2.22M72.83,135.56c-.48.45-1.07.68-1.77.68h-3.1v-4.7h3.1c.7,0,1.29.22,1.77.67.48.45.72,1,.72,1.65s-.24,1.25-.72,1.7"/>
    <polygon class="cls-1" points="79.06 131.51 84.97 131.51 84.97 147.68 89.26 147.68 89.26 131.51 95.2 131.51 95.2 127.4 79.06 127.4 79.06 131.51"/>
    <path class="cls-1" d="M171.27,107.06c-1.78.09-4.19,1.56-5.05,3.1-3.46,6.19-8.3,10.42-15.12,12.27-12.3,3.32-21.73-2.52-30.66-15.49,1.62-.37,3.19-.77,4.78-1.08,23.59-4.61,41.86-26.29,42.38-50.3C168.26,24.87,144.64.26,113.98.1,77.59-.09,41.2.05,4.81.06c-1.42,0-2.85.17-4.5.28v24.14h5.92c26.43,0,52.87,0,79.3,0,9.79,0,19.59-.19,29.37.08,15.36.43,27.36,12.06,28.31,27.07.98,15.38-9.44,28.51-24.82,30.68-5.45.77-11.07.22-16.59.63-3.62.27-6.1-1.05-8.5-3.64-10.42-11.25-20.9-22.44-31.56-33.47-8.95-9.26-20.13-12.63-32.64-10.31C10.33,39.02-1.61,55.82.18,75.45c1.58,17.37,17.14,31.32,35.44,31.51,15.5.16,31.01-.08,46.5.17,2.27.04,5.07,1.25,6.68,2.85,7.26,7.26,14.19,14.87,21.24,22.34,15.09,16,38.03,20,57.36,9.6,13.72-7.38,21.96-18.91,24.8-35.01-7.32,0-14.14-.21-20.93.15M33.92,82.38c-5.57-.34-9.08-4.7-9.66-10.13-.54-5.03,1.52-8.94,5.85-11.48,4.72-2.77,9.9-2.22,13.91,1.8,6.28,6.3,12.29,12.86,19.05,19.97-10.41,0-19.8.41-29.14-.16"/>
  </g>
</svg>