<?xml version="1.0" encoding="UTF-8"?>
<svg id="Capa_2" data-name="Capa 2" xmlns="http://www.w3.org/2000/svg" viewBox="0 0 54.75 54.65">
  <defs>
    <style>
      .cls-1 {
        fill: #fff;
        stroke-width: 0px;
      }
    </style>
  </defs>
  <g id="Layer_1" data-name="Layer 1">
    <path class="cls-1" d="M27.41,54.61c-5.07,0-10.14,0-15.21,0-6.79.02-12.06-5.08-12.16-11.87-.07-5.24-.02-10.48-.02-15.72,0-5-.04-10.01.02-15.01C.1,6.25,3.95,1.49,9.43.33c.94-.2,1.93-.31,2.89-.31C22.4,0,32.47,0,42.55,0c6.4.01,11.4,4.46,12.12,10.78.12,1.1.07,2.21.07,3.32,0,9.57.02,19.14.01,28.71,0,6.25-5.06,11.6-11.32,11.76-5.34.14-10.68.03-16.02.03,0,0,0,0,0,0ZM7.48,27.38c0,2.89,0,5.77,0,8.66,0,6.54,4.78,11.66,11.33,11.84,5.77.16,11.55.15,17.32-.03,6.36-.19,11.17-5.35,11.19-11.69.02-5.87.04-11.75.02-17.62-.02-6.09-4.6-11.27-10.67-11.54-6.1-.27-12.22-.27-18.32-.02-6.33.26-10.86,5.38-10.87,11.74,0,2.89,0,5.77,0,8.66Z"/>
    <path class="cls-1" d="M44.23,27.43c0,2.92.01,5.84,0,8.76-.03,4.75-3.71,8.53-8.48,8.58-5.64.06-11.28.04-16.92,0-4.4-.04-8.21-3.82-8.27-8.28-.07-6.08-.08-12.16,0-18.23.06-4.45,3.87-8.18,8.32-8.22,5.67-.05,11.35-.06,17.02,0,4.54.05,8.28,3.88,8.32,8.44.03,2.99,0,5.98,0,8.97ZM16.5,27.32c0,6.12,4.8,10.93,10.92,10.93,6.04,0,10.9-4.95,10.91-11.13.01-6.31-4.49-10.68-11-10.69-6.08,0-10.82,4.76-10.83,10.88ZM38.57,18.74c1.43-.02,2.61-1.25,2.57-2.67-.04-1.39-1.24-2.51-2.65-2.48-1.49.03-2.58,1.17-2.54,2.66.04,1.42,1.19,2.51,2.61,2.49Z"/>
    <path class="cls-1" d="M34.53,26.98c.02,4.17-3.07,7.47-7.05,7.51-3.94.04-7.22-3.18-7.25-7.11-.02-3.91,3.11-7.18,6.9-7.2,4.53-.03,7.37,2.58,7.4,6.8Z"/>
  </g>
</svg>