<?xml version="1.0" encoding="UTF-8"?>
<svg id="Capa_2" data-name="Capa 2" xmlns="http://www.w3.org/2000/svg" viewBox="0 0 51.33 51.24">
  <defs>
    <style>
      .cls-1 {
        fill: #356d5e;
        stroke-width: 0px;
      }
    </style>
  </defs>
  <g id="Layer_1" data-name="Layer 1">
    <path class="cls-1" d="M25.69,51.19c-4.75,0-9.51,0-14.26,0-6.36.02-11.31-4.76-11.4-11.13-.07-4.91-.02-9.82-.02-14.73,0-4.69-.04-9.38.02-14.07C.09,5.86,3.7,1.4,8.84.31c.89-.19,1.81-.29,2.71-.29C21,0,30.44,0,39.89,0c6,0,10.69,4.18,11.36,10.11.12,1.03.07,2.07.07,3.11,0,8.97.02,17.94.01,26.92,0,5.86-4.74,10.88-10.62,11.03-5,.13-10.01.03-15.02.03,0,0,0,0,0,0ZM7.02,25.67c0,2.71,0,5.41,0,8.12,0,6.13,4.48,10.93,10.63,11.1,5.41.15,10.83.14,16.23-.02,5.96-.18,10.47-5.02,10.49-10.96.01-5.51.04-11.01.02-16.52-.02-5.71-4.31-10.56-10-10.82-5.71-.26-11.46-.26-17.17-.02-5.93.25-10.18,5.05-10.19,11.01,0,2.71,0,5.41,0,8.12Z"/>
    <path class="cls-1" d="M41.46,25.71c0,2.74.01,5.48,0,8.22-.02,4.45-3.48,8-7.95,8.04-5.29.05-10.58.04-15.87,0-4.13-.04-7.7-3.59-7.75-7.77-.07-5.7-.08-11.4,0-17.09.06-4.17,3.63-7.67,7.8-7.71,5.32-.05,10.64-.05,15.96,0,4.25.04,7.76,3.64,7.8,7.91.03,2.8,0,5.6,0,8.41ZM15.47,25.61c0,5.74,4.5,10.25,10.24,10.25,5.66,0,10.21-4.64,10.22-10.44.01-5.91-4.21-10.01-10.31-10.02-5.7,0-10.14,4.46-10.15,10.2ZM36.16,17.56c1.34-.02,2.45-1.17,2.41-2.5-.04-1.3-1.17-2.35-2.48-2.33-1.4.03-2.42,1.1-2.38,2.49.04,1.33,1.11,2.35,2.45,2.33Z"/>
    <path class="cls-1" d="M32.37,25.29c.02,3.91-2.88,7-6.61,7.04-3.7.04-6.77-2.98-6.79-6.66-.02-3.66,2.92-6.73,6.47-6.75,4.24-.03,6.91,2.42,6.93,6.38Z"/>
  </g>
</svg>