<?xml version="1.0" encoding="UTF-8"?>
<svg id="Capa_2" data-name="Capa 2" xmlns="http://www.w3.org/2000/svg" viewBox="0 0 54.87 54.87">
  <defs>
    <style>
      .cls-1 {
        fill: #fff;
        stroke-width: 0px;
      }
    </style>
  </defs>
  <g id="Layer_1" data-name="Layer 1">
    <path class="cls-1" d="M37.96,54.86v-21.26h7.07c.36-2.77.71-5.45,1.08-8.27h-8.04c0-2.44-.13-4.75.05-7.04.11-1.44,1.36-2.23,3.12-2.29,1.67-.06,3.35-.01,5.17-.01,0-1.14,0-2.17,0-3.2,0-.81.02-1.61,0-2.42-.05-2.07.44-1.85-1.84-1.98-1.91-.11-3.83-.21-5.73-.08-5.53.38-9.09,4-9.43,9.53-.13,2.08-.05,4.16-.07,6.24,0,.36,0,.72,0,1.19h-7.1v8.29h7.02v21.31c-.42,0-.81,0-1.21,0-5.68,0-11.35,0-17.03,0-6.23,0-10.96-4.63-10.99-10.85-.04-11.08-.04-22.17,0-33.25C.05,4.58,4.79.01,11.09.01,20.66,0,30.23,0,39.81.02c2.11,0,4.27-.13,6.32.23,5.11.91,8.64,5.08,8.68,10.27.08,11.25.1,22.5,0,33.75-.06,6.06-4.77,10.52-10.82,10.58-1.98.02-3.95,0-6.02,0Z"/>
  </g>
</svg>