<?xml version="1.0" encoding="UTF-8"?>
<svg id="Capa_2" data-name="Capa 2" xmlns="http://www.w3.org/2000/svg" viewBox="0 0 51.44 51.44">
  <defs>
    <style>
      .cls-1 {
        fill: #356d5e;
        stroke-width: 0px;
      }
    </style>
  </defs>
  <g id="Layer_1" data-name="Layer 1">
    <path class="cls-1" d="M35.59,51.43v-19.93h6.63c.34-2.6.67-5.11,1.01-7.75h-7.54c0-2.28-.12-4.45.04-6.6.1-1.35,1.28-2.09,2.93-2.15,1.57-.06,3.14-.01,4.85-.01,0-1.07,0-2.04,0-3,0-.76.02-1.51,0-2.27-.05-1.94.41-1.73-1.73-1.86-1.79-.11-3.59-.2-5.37-.08-5.18.36-8.52,3.75-8.84,8.94-.12,1.95-.05,3.9-.07,5.85,0,.34,0,.68,0,1.11h-6.66v7.77h6.58v19.98c-.4,0-.76,0-1.13,0-5.32,0-10.64,0-15.96,0-5.84,0-10.28-4.34-10.3-10.17-.04-10.39-.04-20.78,0-31.17C.05,4.29,4.49.01,10.4,0,19.37,0,28.34,0,37.32.02c1.98,0,4-.12,5.93.22,4.79.85,8.1,4.76,8.14,9.63.07,10.55.09,21.1,0,31.64-.05,5.68-4.47,9.86-10.15,9.92-1.85.02-3.71,0-5.64,0Z"/>
  </g>
</svg>